<svg width="33" height="33" viewBox="0 0 33 33" fill="none" xmlns="http://www.w3.org/2000/svg">
<g clip-path="url(#clip0_40_4747)">
<path d="M28.05 0H4.95C2.21619 0 0 2.21619 0 4.95V28.05C0 30.7838 2.21619 33 4.95 33H28.05C30.7838 33 33 30.7838 33 28.05V4.95C33 2.21619 30.7838 0 28.05 0Z" fill="#E0E0E0"/>
<path d="M24.8789 8.83006C23.3321 8.12107 21.6885 7.60545 19.9612 7.30252C19.9289 7.30252 19.8967 7.30252 19.8838 7.34119C19.6711 7.72146 19.4327 8.21131 19.2715 8.59803C17.4024 8.32088 15.5655 8.32088 13.7479 8.59803C13.5803 8.19842 13.3418 7.71502 13.1034 7.34119C13.084 7.31541 13.0582 7.29607 13.026 7.30252C11.5436 7.599 9.64867 8.14041 8.12758 8.83006C8.11469 8.83006 8.10179 8.84295 8.09535 8.85584C4.93715 13.5609 4.09926 18.0726 4.55043 22.5844C4.55043 22.6037 4.56332 22.6295 4.58265 22.6488C6.64515 24.1699 8.6432 25.098 10.6155 25.6974C10.6477 25.6974 10.6799 25.6974 10.6993 25.6717C11.1633 25.04 11.5758 24.3697 11.9368 23.6607C11.9561 23.622 11.9368 23.5705 11.8916 23.5576C11.2471 23.2998 10.6026 23.0033 10.0032 22.6553C9.95805 22.6295 9.9516 22.5586 10.0032 22.5263C10.1321 22.4297 10.261 22.333 10.377 22.2363C10.3963 22.217 10.4286 22.217 10.4543 22.2234C14.4118 24.0281 18.7043 24.0281 22.5715 22.2234C22.5973 22.2105 22.6295 22.217 22.6489 22.2299C22.7713 22.333 22.8938 22.4297 23.0227 22.5263C23.0678 22.5586 23.0614 22.6295 23.0227 22.6553C22.4233 23.0097 21.7981 23.2998 21.1342 23.5576C21.0891 23.5769 21.0698 23.6221 21.0955 23.6672C21.4565 24.3762 21.8754 25.04 22.3202 25.6652C22.3395 25.691 22.3717 25.7039 22.4039 25.691C24.3762 25.0787 26.3807 24.157 28.4496 22.6424C28.469 22.6295 28.4819 22.6101 28.4819 22.5779C28.9846 17.3637 27.6375 12.8455 24.9112 8.84939C24.9112 8.8365 24.8918 8.82361 24.8789 8.82361V8.83006ZM12.5039 19.8515C11.2793 19.8515 10.3125 18.7558 10.3125 17.4023C10.3125 16.0488 11.2793 14.9531 12.5039 14.9531C13.7286 14.9531 14.6953 16.0488 14.6953 17.4023C14.6953 18.7558 13.7286 19.8515 12.5039 19.8515ZM20.5606 19.8515C19.336 19.8515 18.3692 18.7558 18.3692 17.4023C18.3692 16.0488 19.336 14.9531 20.5606 14.9531C21.7852 14.9531 22.752 16.0488 22.752 17.4023C22.752 18.7558 21.7852 19.8515 20.5606 19.8515Z" fill="#595959"/>
</g>
<defs>
<clipPath id="clip0_40_4747">
<rect width="33" height="33" fill="white"/>
</clipPath>
</defs>
</svg>
