<svg width="172" height="123" viewBox="0 0 172 123" fill="none" xmlns="http://www.w3.org/2000/svg">
<path d="M20.5312 61.1459C19.7589 61.3373 19.0833 60.5938 19.3474 59.8433L35.0412 15.2519C35.2925 14.5379 36.2154 14.3511 36.7245 14.9114L66.9154 48.1324C67.4245 48.6926 67.1506 49.5935 66.4158 49.7756L20.5312 61.1459Z" fill="white"/>
<path fill-rule="evenodd" clip-rule="evenodd" d="M161 89.8183C161 126.922 130.922 157 93.8182 157C56.7147 157 26.6364 126.922 26.6364 89.8183C26.6364 88.5061 26.674 87.2028 26.7482 85.9092H15.7324C15.6686 87.2042 15.6364 88.5075 15.6364 89.8183C15.6364 132.997 50.6395 168 93.8182 168C136.997 168 172 132.997 172 89.8183C172 46.6397 136.997 11.6365 93.8182 11.6365C69.1285 11.6365 47.1119 23.0811 32.7839 40.9547H47.7122C59.7435 29.5982 75.9678 22.6365 93.8182 22.6365C130.922 22.6365 161 52.7148 161 89.8183Z" fill="url(#paint0_linear_19_2732)"/>
<defs>
<linearGradient id="paint0_linear_19_2732" x1="52.2841" y1="24.341" x2="139.75" y2="146.989" gradientUnits="userSpaceOnUse">
<stop stop-color="white"/>
<stop offset="1" stop-color="white" stop-opacity="0.5"/>
</linearGradient>
</defs>
</svg>
