<svg width="33" height="33" viewBox="0 0 33 33" fill="none" xmlns="http://www.w3.org/2000/svg">
<g clip-path="url(#clip0_40_4742)">
<path d="M28.05 0H4.95C2.21619 0 0 2.21619 0 4.95V28.05C0 30.7838 2.21619 33 4.95 33H28.05C30.7838 33 33 30.7838 33 28.05V4.95C33 2.21619 30.7838 0 28.05 0Z" fill="#E0E0E0"/>
<path d="M12.8262 26.0391C12.1172 26.0391 12.1816 25.7812 11.9883 25.1367L9.92578 18.3691L25.7168 9.08789" fill="#444444"/>
<path d="M12.8262 26.0391C13.2773 26.0391 13.5352 25.7812 13.8574 25.5234L16.7578 22.752L13.1484 20.5605" fill="#363636"/>
<path d="M13.1485 20.5607L21.8497 26.9416C22.7521 27.5217 23.5255 27.1994 23.7833 26.0393L27.3282 9.41035C27.6505 7.99238 26.7482 7.34785 25.7814 7.79902L5.0919 15.7912C3.73839 16.3068 3.73839 17.1447 4.83409 17.467L10.1837 19.1428L22.4298 11.3439C23.0099 11.0217 23.5255 11.1506 23.1388 11.6018" fill="#595959"/>
</g>
<defs>
<clipPath id="clip0_40_4742">
<rect width="33" height="33" fill="white"/>
</clipPath>
</defs>
</svg>
