<svg width="33" height="34" viewBox="0 0 33 34" fill="none" xmlns="http://www.w3.org/2000/svg">
<path d="M28.05 0.765625H4.95C2.21619 0.765625 0 2.94719 0 5.63828V28.3773C0 31.0684 2.21619 33.25 4.95 33.25H28.05C30.7838 33.25 33 31.0684 33 28.3773V5.63828C33 2.94719 30.7838 0.765625 28.05 0.765625Z" fill="#E0E0E0"/>
<path fill-rule="evenodd" clip-rule="evenodd" d="M13.9188 21.3194L13.918 14.1288L20.6727 17.7365L13.9188 21.3194ZM28.75 12.8828C28.75 12.8828 28.5055 11.1193 27.7562 10.3428C26.8055 9.32311 25.7398 9.3183 25.2516 9.25912C21.7531 9 16.5055 9 16.5055 9H16.4945C16.4945 9 11.2469 9 7.74844 9.25912C7.25938 9.3183 6.19453 9.32311 5.24297 10.3428C4.49375 11.1193 4.25 12.8828 4.25 12.8828C4.25 12.8828 4 14.9541 4 17.0247V18.9665C4 21.0379 4.25 23.1084 4.25 23.1084C4.25 23.1084 4.49375 24.8719 5.24297 25.6484C6.19453 26.6681 7.44375 26.6361 8 26.7425C10 26.9392 16.5 27 16.5 27C16.5 27 21.7531 26.992 25.2516 26.7329C25.7398 26.6729 26.8055 26.6681 27.7562 25.6484C28.5055 24.8719 28.75 23.1084 28.75 23.1084C28.75 23.1084 29 21.0379 29 18.9665V17.0247C29 14.9541 28.75 12.8828 28.75 12.8828Z" fill="#595959"/>
</svg>
