<svg width="33" height="33" viewBox="0 0 33 33" fill="none" xmlns="http://www.w3.org/2000/svg">
<g clip-path="url(#clip0_40_4750)">
<path d="M28.05 0H4.95C2.21619 0 0 2.21619 0 4.95V28.05C0 30.7838 2.21619 33 4.95 33H28.05C30.7838 33 33 30.7838 33 28.05V4.95C33 2.21619 30.7838 0 28.05 0Z" fill="#E0E0E0"/>
<path d="M17.6601 23.3964C17.9824 23.332 18.5624 23.2031 18.5624 22.4296C18.5624 22.4296 18.498 20.496 19.4003 20.2382C20.3027 19.9804 21.4628 22.1074 22.6874 22.9453C23.5898 23.5253 24.2988 23.4609 24.2988 23.4609L27.5859 23.3964C27.5859 23.3964 29.2617 23.2675 28.4882 21.914C28.4238 21.7851 27.9082 20.9472 25.9746 19.207C23.9765 17.2734 24.2988 17.5957 26.6835 14.3085C28.166 12.3105 28.8105 11.0859 28.6171 10.6347C28.3593 10.1835 27.3281 10.248 27.3281 10.248H23.6542C23.2675 10.248 23.0742 10.3125 22.8808 10.6347C22.8808 10.6347 22.3007 12.246 21.5273 13.5351C19.916 16.3066 19.2714 16.4355 18.9492 16.2421C18.3691 15.9199 18.498 14.6953 18.498 13.8574C18.498 10.957 18.9492 9.92573 17.6601 9.66792C16.8222 9.53901 13.8574 9.41011 12.955 9.86128C12.5039 10.1191 12.246 10.5703 12.4394 10.6347C12.6328 10.6347 13.2128 10.6992 13.5351 11.0859C14.0507 11.9238 14.1152 15.9199 13.4062 16.3066C12.4394 17.0156 9.99018 12.3105 9.41011 10.7636C9.2812 10.3769 9.08784 10.3125 8.63667 10.1835H5.09175C4.70503 10.1835 4.12495 10.248 4.38276 11.0214C6.123 14.6308 9.73237 23.4609 16.2421 23.3964H17.6601Z" fill="#595959"/>
</g>
<defs>
<clipPath id="clip0_40_4750">
<rect width="33" height="33" fill="white"/>
</clipPath>
</defs>
</svg>
