<svg width="30" height="33" viewBox="0 0 30 33" fill="none" xmlns="http://www.w3.org/2000/svg">
<path fill-rule="evenodd" clip-rule="evenodd" d="M10.4107 0C10.0162 0 9.63795 0.15804 9.35903 0.439335L0.435598 9.43933C0.156696 9.72064 0 10.1022 0 10.5V28.5C0 30.9853 1.99759 33 4.46172 33H5.94896C6.77033 33 7.4362 32.3284 7.4362 31.5C7.4362 30.6716 6.77033 30 5.94896 30H4.46172C3.64035 30 2.97448 29.3284 2.97448 28.5V12H10.4107C11.2321 12 11.8979 11.3284 11.8979 10.5V3H22.3086C23.13 3 23.7958 3.67158 23.7958 4.5V9C23.7958 9.82842 24.4617 10.5 25.2831 10.5C26.1045 10.5 26.7703 9.82842 26.7703 9V4.5C26.7703 2.01472 24.7728 0 22.3086 0H10.4107ZM8.92344 9H5.07775L8.92344 5.12132V9ZM28.438 14.5606C26.6955 12.8033 23.8706 12.8033 22.1282 14.5606L19.6299 17.0803L12.3335 24.4394C12.1429 24.6317 12.0077 24.8724 11.9424 25.1362L10.4551 31.1362C10.3284 31.6473 10.4769 32.188 10.8463 32.5606C11.2157 32.9333 11.7519 33.083 12.2586 32.9552L18.2075 31.4552C18.4691 31.3893 18.7078 31.253 18.8985 31.0606L26.1094 23.7879L28.6932 21.1819C30.4356 19.4245 30.4356 16.5755 28.6932 14.8181L28.438 14.5606ZM22.7649 18.1611L24.2314 16.6819C24.8122 16.0962 25.7539 16.0962 26.3347 16.6819L26.5899 16.9394C27.1707 17.5251 27.1707 18.4749 26.5899 19.0606L25.0781 20.5854L22.7649 18.1611ZM20.6612 20.2829L22.9744 22.7071L17.0866 28.6455L13.942 29.4384L14.7281 26.2668L20.6612 20.2829Z" fill="#B0B0B0"/>
</svg>
