<svg width="64" height="64" viewBox="0 0 64 64" fill="none" xmlns="http://www.w3.org/2000/svg">
<g clip-path="url(#clip0_19_3546)">
<path d="M64 32C64 49.6733 49.6733 64 32 64C14.3267 64 0 49.6733 0 32C0 14.3267 14.3267 0 32 0C49.6733 0 64 14.3267 64 32Z" fill="#1F7EE8"/>
<path d="M64 32C64 28.1167 63.3076 24.3955 62.041 20.9517L53.9644 12.875H10.0356V51.125L20.9517 62.041C24.3955 63.3076 28.1167 64 32 64C49.6733 64 64 49.6733 64 32Z" fill="#08468C"/>
<path d="M10.0356 12.875H53.9644V51.125H10.0356V12.875Z" fill="white"/>
<path d="M32 12.875H53.9639V51.125H32V12.875Z" fill="#FFF5CB"/>
<path d="M10.0356 12.875H53.9644V19.6519H10.0356V12.875Z" fill="#57555C"/>
<path d="M32 12.875H53.9639V19.6523H32V12.875Z" fill="#2A2A2C"/>
<path d="M41.5474 16.2637C41.5474 17.4072 40.6206 18.334 39.4771 18.334C38.3335 18.334 37.4062 17.4072 37.4062 16.2637C37.4062 15.1201 38.3335 14.1929 39.4771 14.1929C40.6206 14.1929 41.5474 15.1201 41.5474 16.2637Z" fill="#00CEB4"/>
<path d="M46.8154 16.2637C46.8154 17.4072 45.8882 18.334 44.7446 18.334C43.6011 18.334 42.6743 17.4072 42.6743 16.2637C42.6743 15.1201 43.6011 14.1929 44.7446 14.1929C45.8882 14.1929 46.8154 15.1201 46.8154 16.2637Z" fill="#FEC000"/>
<path d="M52.0835 16.2637C52.0835 17.4072 51.1562 18.334 50.0127 18.334C48.8691 18.334 47.9419 17.4072 47.9419 16.2637C47.9419 15.1201 48.8691 14.1929 50.0127 14.1929C51.1562 14.1929 52.0835 15.1201 52.0835 16.2637Z" fill="#EE2600"/>
<path d="M42.501 36.2651H32.522V32.1724H31.478V36.2651H20.4556V39.0996H21.499V37.3091H31.478V39.0996H32.522V37.3091H42.501V39.0996H43.5444V36.2651H42.501Z" fill="#57555C"/>
<path d="M43.5449 36.2651V39.1001H42.5015V37.3086H32.5225V39.1001H32V32.1724H32.5225V36.2651H43.5449Z" fill="#2A2A2C"/>
<path d="M25.585 24.1479H38.415V32.9678H25.585V24.1479Z" fill="#00EFD1"/>
<path d="M32 24.1475H38.415V32.9673H32V24.1475Z" fill="#00AD95"/>
<path d="M17.1802 39.0708H24.7744V45.7915H17.1802V39.0708Z" fill="#EE2600"/>
<path d="M28.2031 39.0708H35.7969V45.7915H28.2031V39.0708Z" fill="#FFDB2D"/>
<path d="M32 39.0713H35.7974V45.7915H32V39.0713Z" fill="#FF9A00"/>
<path d="M39.2256 39.0708H46.8198V45.7915H39.2256V39.0708Z" fill="#5C1B6F"/>
</g>
<defs>
<clipPath id="clip0_19_3546">
<rect width="64" height="64" fill="white"/>
</clipPath>
</defs>
</svg>
