<svg width="64" height="64" viewBox="0 0 64 64" fill="none" xmlns="http://www.w3.org/2000/svg">
<circle cx="32" cy="32" r="32" fill="#FFD55C"/>
<path d="M44.6278 21.6423H12.5263V42.9413H44.6278V21.6423Z" fill="#006DF0"/>
<path d="M44.6275 21.6423H28.5768V42.9413H44.6275V21.6423Z" fill="#0052B4"/>
<path d="M11 41.8044V43.8723C11 46.1528 12.8553 48.008 15.1357 48.008H42.0179C44.2983 48.008 46.1536 46.1528 46.1536 43.8723V41.8044H11Z" fill="#93C7EF"/>
<path d="M28.5792 41.8044V48.008H42.018C44.2984 48.008 46.1537 46.1528 46.1537 43.8723V41.8044H28.5792Z" fill="#78B9EB"/>
<path d="M22.8275 28.3672L18.8179 32.3767L22.8275 36.3865L25.0207 34.1932L23.2045 32.3767L25.0207 30.5605L22.8275 28.3672Z" fill="white"/>
<path d="M31.3891 26.5467L28.3538 25.9077L25.8336 37.8791H29.0033L31.3891 26.5467Z" fill="white"/>
<path d="M55.8682 32.5995L43.4396 20.1709C42.7097 19.4408 41.7361 19.0391 40.6979 19.0391C39.6598 19.0391 38.6861 19.4409 37.9562 20.1708C37.2263 20.9007 36.8244 21.8744 36.8244 22.9125C36.8244 23.9506 37.2263 24.9242 37.9562 25.6542L50.3849 38.0829C51.1149 38.8129 52.0885 39.2147 53.1266 39.2147C54.1647 39.2147 55.1383 38.8128 55.8681 38.0828C56.5981 37.3528 57 36.3792 57 35.3412C57 34.3031 56.5982 33.3293 55.8682 32.5995Z" fill="#006DF0"/>
<path d="M40.7017 34.2892C46.983 34.2892 52.0749 29.1973 52.0749 22.916C52.0749 16.6347 46.983 11.5427 40.7017 11.5427C34.4204 11.5427 29.3284 16.6347 29.3284 22.916C29.3284 29.1973 34.4204 34.2892 40.7017 34.2892Z" fill="white"/>
<path d="M40.7019 35.8341C37.3923 35.8341 34.0826 34.5744 31.563 32.0548C29.1221 29.6139 27.7777 26.3682 27.7777 22.9161C27.7777 19.4638 29.1221 16.2184 31.563 13.7772C34.004 11.3361 37.2496 9.99194 40.7019 9.99194C44.1539 9.99194 47.3995 11.3363 49.8406 13.7772C52.2817 16.2182 53.626 19.4637 53.626 22.9161C53.626 26.3682 52.2816 29.6137 49.8406 32.0548C47.3209 34.5742 44.0114 35.8341 40.7019 35.8341ZM33.7563 29.8616C37.5861 33.6912 43.8174 33.6912 47.6472 29.8616C49.5023 28.0064 50.5241 25.5398 50.5241 22.9162C50.5241 20.2925 49.5023 17.8259 47.6472 15.9706C45.792 14.1154 43.3253 13.0938 40.7018 13.0938C38.0781 13.0938 35.6115 14.1154 33.7564 15.9706C31.9013 17.8258 30.8795 20.2925 30.8795 22.9162C30.8795 25.5398 31.9011 28.0064 33.7563 29.8616Z" fill="#78B9EB"/>
<path d="M49.8404 13.7772C47.3995 11.3363 44.1538 9.99194 40.7017 9.99194V13.0937C43.3253 13.0937 45.7918 14.1153 47.6472 15.9705C49.5023 17.8257 50.524 20.2925 50.524 22.9161C50.524 25.5398 49.5023 28.0062 47.6472 29.8615C45.7322 31.7763 43.217 32.7336 40.7018 32.7336V35.8339C44.0113 35.8339 47.321 34.574 49.8405 32.0546C52.2815 29.6137 53.6259 26.3681 53.6259 22.9159C53.626 19.4638 52.2816 16.2183 49.8404 13.7772Z" fill="#78B9EB"/>
<path d="M39.4426 22.3033L36.3408 22.291L36.3536 19.0844C36.366 16.8054 38.2221 14.9619 40.4959 14.9619C40.5036 14.9619 40.5112 14.9619 40.519 14.9619C42.8034 14.9744 44.6517 16.843 44.6393 19.1273V22.291H41.2344C41.2359 22.0073 41.4314 18.5739 41.2344 18.3749C41.0375 18.1758 40.7773 18.0655 40.5021 18.0638H40.4967C39.9347 18.0638 39.4585 18.5366 39.4555 19.0992L39.4426 22.3033Z" fill="#006DF0"/>
<path d="M35.4712 21.6428L35.4186 28.3567L45.4608 28.4113L45.5163 21.6896L35.4712 21.6428Z" fill="#0052B4"/>
</svg>
