<svg width="33" height="33" viewBox="0 0 33 33" fill="none" xmlns="http://www.w3.org/2000/svg">
<path d="M4.125 15.2591V22.125C4.125 26.3828 4.125 28.5117 5.1344 29.4419C5.6158 29.8856 6.22346 30.1643 6.87077 30.2383C8.22803 30.3937 9.81303 28.9917 12.983 26.188C14.3842 24.9487 15.0849 24.329 15.8954 24.1658C16.2946 24.0853 16.7054 24.0853 17.1046 24.1658C17.9152 24.329 18.6159 24.9487 20.017 26.188C23.187 28.9917 24.772 30.3937 26.1293 30.2383C26.7766 30.1643 27.3842 29.8856 27.8656 29.4419C28.875 28.5117 28.875 26.3828 28.875 22.125V15.2591C28.875 9.36225 28.875 6.41383 27.0628 4.58191C25.2505 2.75 22.3336 2.75 16.5 2.75C10.6664 2.75 7.74956 2.75 5.93728 4.58191C4.82735 5.70387 4.3972 7.24461 4.23049 9.625" fill="#D9D9D9"/>
<path d="M4.125 15.2591V22.125C4.125 26.3828 4.125 28.5117 5.1344 29.4419C5.6158 29.8856 6.22346 30.1643 6.87077 30.2383C8.22803 30.3937 9.81303 28.9917 12.983 26.188C14.3842 24.9487 15.0849 24.329 15.8954 24.1658C16.2946 24.0853 16.7054 24.0853 17.1046 24.1658C17.9152 24.329 18.6159 24.9487 20.017 26.188C23.187 28.9917 24.772 30.3937 26.1293 30.2383C26.7766 30.1643 27.3842 29.8856 27.8656 29.4419C28.875 28.5117 28.875 26.3828 28.875 22.125V15.2591C28.875 9.36225 28.875 6.41382 27.0628 4.58191C25.2505 2.75 22.3336 2.75 16.5 2.75C10.6664 2.75 7.74956 2.75 5.93728 4.58191C4.82735 5.70387 4.3972 7.24461 4.23049 9.625" stroke="#595959" stroke-width="2" stroke-linecap="round"/>
<path d="M20.625 8.25H12.375" stroke="#595959" stroke-width="2" stroke-linecap="round"/>
</svg>
