<svg width="31" height="38" viewBox="0 0 31 38" fill="none" xmlns="http://www.w3.org/2000/svg">
<path fill-rule="evenodd" clip-rule="evenodd" d="M15.9675 1.00004L30.3686 7.70972C30.7536 7.89036 31 8.2734 31 8.6956V20.2868C31 29.7212 22.7368 34.1566 16.7067 37.3972L16.0269 37.7628C15.8619 37.8499 15.6815 37.8956 15.4989 37.8956C15.3185 37.8956 15.1381 37.8499 14.9731 37.7628L14.2933 37.3972C8.26097 34.1566 0 29.7212 0 20.2868V8.69556C0 8.27336 0.24641 7.89032 0.631394 7.70969L15.0325 1.00002C15.3273 0.860739 15.6727 0.860758 15.9675 1.00004ZM11.5528 8.28207C8.12302 8.28207 5.33342 11.0439 5.33342 14.4368C5.33342 17.8297 8.12302 20.5893 11.5528 20.5893C11.5902 20.5893 11.6276 20.5893 11.665 20.5871L12.8046 21.7145H14.4348V23.9648H16.7096V25.5796L18.4937 27.3425H24.5987V21.3031L17.7699 14.5456C17.7722 14.5108 17.7722 14.4738 17.7722 14.4368C17.7722 11.0439 14.9826 8.28207 11.5528 8.28207ZM11.5528 10.4584C13.7682 10.4584 15.5722 12.2452 15.5524 14.6326L15.4754 15.3508L22.3987 22.2041V25.1661H19.4045L18.9095 24.6786V21.7884H16.6348V19.5381H13.7153L12.4724 18.3107L11.5528 18.413C9.33738 18.413 7.53338 16.6305 7.53338 14.4368C7.53338 12.2452 9.3374 10.4584 11.5528 10.4584ZM11.6498 12.8668C10.739 12.8668 9.99982 13.598 9.99982 14.499C9.99982 15.4 10.739 16.1313 11.6498 16.1313C12.5606 16.1313 13.2998 15.4 13.2998 14.499C13.2998 13.598 12.5606 12.8668 11.6498 12.8668Z" fill="#67FF80"/>
</svg>
