<svg width="64" height="64" viewBox="0 0 64 64" fill="none" xmlns="http://www.w3.org/2000/svg">
<path d="M32 64C49.6731 64 64 49.6731 64 32C64 14.3269 49.6731 0 32 0C14.3269 0 0 14.3269 0 32C0 49.6731 14.3269 64 32 64Z" fill="#382B73"/>
<path d="M32 59.6848C47.2899 59.6848 59.6848 47.2899 59.6848 32C59.6848 16.7101 47.2899 4.31519 32 4.31519C16.7101 4.31519 4.31517 16.7101 4.31517 32C4.31517 47.2899 16.7101 59.6848 32 59.6848Z" fill="#473080"/>
<path d="M49.8584 31.3631C49.8388 30.9769 49.6113 30.6457 49.2856 30.479C49.2706 30.4712 49.2551 30.4637 49.2395 30.4567C49.2162 30.4463 49.1924 30.4364 49.1682 30.4275C49.0551 30.3862 48.9332 30.3635 48.8059 30.3635H35.304V20.6158C35.304 20.5976 35.3035 20.5796 35.3027 20.5617C35.2831 20.1755 35.0555 19.8442 34.7299 19.6775C34.6846 19.6542 34.6372 19.6341 34.5881 19.6175C34.5718 19.6118 34.5554 19.6067 34.5386 19.6022C34.4469 19.5762 34.3502 19.5623 34.2502 19.5623H15.1941C15.0915 19.5623 14.992 19.577 14.8982 19.6043C14.8867 19.6078 14.8754 19.6113 14.8642 19.6151C14.8082 19.6335 14.754 19.6566 14.7026 19.6839C14.6884 19.6914 14.6744 19.6992 14.6608 19.7072C14.6519 19.7126 14.6431 19.7177 14.6345 19.7233C14.6224 19.7308 14.6107 19.7386 14.5989 19.7466C14.5889 19.7533 14.579 19.7603 14.5694 19.7675C14.5268 19.7989 14.4866 19.8335 14.4493 19.871C14.4177 19.9026 14.3882 19.9361 14.3606 19.9718C14.3536 19.9806 14.3469 19.9895 14.3405 19.9986C14.3311 20.0114 14.322 20.0246 14.3132 20.038C14.3091 20.0441 14.3051 20.0503 14.3011 20.0567C14.1993 20.2189 14.1403 20.4105 14.1403 20.6161V22.6797V37.1392C14.1403 37.7213 14.612 38.193 15.1941 38.193H28.696V47.9407C28.696 48.5228 29.1677 48.9945 29.7498 48.9945H48.8062C49.3883 48.9945 49.86 48.5228 49.86 47.9407V31.4175C49.8597 31.399 49.8594 31.3811 49.8584 31.3631Z" fill="#382B73"/>
<path d="M39.546 22.499C39.5463 22.5097 39.5465 22.5207 39.5471 22.5314C39.5473 22.5362 39.5473 22.5411 39.5476 22.5462C39.5479 22.5571 39.5484 22.5684 39.549 22.5794C39.5492 22.5845 39.5495 22.5898 39.5495 22.5949C39.55 22.6067 39.5508 22.6185 39.5514 22.63C39.5516 22.6335 39.5519 22.6373 39.5519 22.641C39.5527 22.655 39.5538 22.6689 39.5546 22.6828C39.5546 22.6839 39.5548 22.6852 39.5548 22.6863C39.5559 22.7 39.557 22.7137 39.5581 22.7271C39.5583 22.73 39.5586 22.733 39.5589 22.7356C39.5599 22.7485 39.561 22.7616 39.5623 22.7745C39.5626 22.7758 39.5626 22.7769 39.5626 22.778L38.5308 24.036C38.4882 24.088 38.4544 24.1453 38.43 24.2056C38.4257 24.2164 38.4217 24.2276 38.418 24.2383C38.4174 24.24 38.4169 24.2413 38.4164 24.2429C38.4129 24.2536 38.4094 24.2646 38.4062 24.2756C38.403 24.2866 38.4003 24.2978 38.3979 24.3088C38.3973 24.3107 38.3971 24.3126 38.3968 24.3145C38.392 24.3367 38.3885 24.3589 38.3861 24.3815C38.3858 24.3833 38.3858 24.3852 38.3855 24.3871C38.3834 24.4096 38.3823 24.4321 38.3823 24.4546C38.3823 24.4568 38.3823 24.4589 38.3823 24.4611C38.3826 24.4833 38.3842 24.5058 38.3866 24.5281C38.3869 24.5302 38.3871 24.5326 38.3874 24.5348C38.3887 24.5455 38.3904 24.5565 38.3922 24.5672C38.3922 24.5675 38.3922 24.5677 38.3925 24.568C38.3944 24.579 38.3968 24.59 38.3995 24.6007C38.4 24.6031 38.4005 24.6055 38.4011 24.6079C38.4038 24.6186 38.4064 24.6294 38.4097 24.6398C38.4129 24.6505 38.4164 24.6613 38.4201 24.672C38.4209 24.6744 38.422 24.6768 38.4228 24.6795C38.4265 24.6899 38.4308 24.7004 38.4351 24.7108C38.4397 24.7213 38.4445 24.7315 38.4496 24.7417C38.4509 24.7441 38.452 24.7465 38.4533 24.7492C38.4584 24.7594 38.4638 24.7693 38.4694 24.7792L38.9127 25.547C39.0491 25.7831 39.3174 25.9102 39.5865 25.8657L41.1918 25.6012C41.2682 25.6556 41.3465 25.7076 41.4266 25.7566C41.4269 25.7569 41.4271 25.7569 41.4274 25.7571C41.4542 25.7735 41.481 25.7893 41.5081 25.8051C41.5081 25.8051 41.5083 25.8051 41.5083 25.8054C41.5354 25.8212 41.5628 25.8365 41.5904 25.8515C41.5906 25.8515 41.5906 25.8517 41.5909 25.8517C41.6737 25.897 41.7581 25.9394 41.8444 25.9788C41.8444 25.9788 41.8447 25.9788 41.8447 25.979L42.418 27.5008C42.5142 27.7559 42.7583 27.9248 43.0309 27.9248H43.9175C44.19 27.9248 44.4342 27.7559 44.5304 27.5008L45.1037 25.979C45.1037 25.979 45.1039 25.979 45.1039 25.9788C45.1902 25.9394 45.2746 25.897 45.3575 25.8517C45.3577 25.8517 45.3577 25.8517 45.358 25.8515C45.3853 25.8365 45.4129 25.8212 45.44 25.8054C45.44 25.8054 45.4403 25.8054 45.4403 25.8051C45.4673 25.7896 45.4941 25.7735 45.5209 25.7571C45.5212 25.7569 45.5215 25.7569 45.5217 25.7566C45.6019 25.7076 45.6801 25.6558 45.7565 25.6012L47.3619 25.8657C47.631 25.9099 47.8992 25.7831 48.0356 25.547L48.4789 24.7792C48.4846 24.7693 48.4899 24.7594 48.495 24.7492C48.4964 24.7468 48.4974 24.7443 48.4988 24.7417C48.5039 24.7315 48.5087 24.7213 48.5132 24.7108C48.5178 24.7007 48.5218 24.6902 48.5256 24.6795C48.5264 24.6771 48.5274 24.6747 48.5282 24.672C48.532 24.6615 48.5355 24.6508 48.5387 24.6401C48.5419 24.6294 48.5446 24.6186 48.5473 24.6079C48.5478 24.6055 48.5483 24.6031 48.5489 24.6007C48.5516 24.59 48.5537 24.579 48.5559 24.568C48.5559 24.5677 48.5559 24.5675 48.5561 24.5672C48.558 24.5565 48.5596 24.5455 48.5609 24.5348C48.5612 24.5326 48.5615 24.5302 48.5617 24.5281C48.5644 24.5058 48.5658 24.4836 48.566 24.4611C48.566 24.4589 48.566 24.4568 48.566 24.4546C48.566 24.4321 48.5652 24.4096 48.5628 24.3871C48.5626 24.3852 48.5626 24.3833 48.5623 24.3815C48.5599 24.3589 48.5564 24.3367 48.5516 24.3145C48.5513 24.3126 48.5508 24.3107 48.5505 24.3088C48.5481 24.2976 48.5454 24.2866 48.5422 24.2756C48.5392 24.2646 48.5358 24.2539 48.532 24.2429C48.5315 24.2413 48.5309 24.24 48.5304 24.2383C48.5266 24.2274 48.5226 24.2166 48.5183 24.2059C48.4939 24.1456 48.4604 24.088 48.4176 24.036L47.3857 22.778C47.3857 22.7769 47.386 22.7756 47.386 22.7745C47.3871 22.7616 47.3884 22.7485 47.3895 22.7356C47.3898 22.7327 47.39 22.7297 47.3903 22.7271C47.3914 22.7134 47.3924 22.6997 47.3935 22.6863C47.3935 22.6852 47.3938 22.6839 47.3938 22.6828C47.3948 22.6689 47.3957 22.655 47.3965 22.641C47.3967 22.6373 47.397 22.6338 47.397 22.63C47.3975 22.6182 47.3983 22.6067 47.3989 22.5949C47.3991 22.5898 47.3994 22.5845 47.3997 22.5794C47.4002 22.5684 47.4007 22.5571 47.401 22.5462C47.4013 22.5413 47.4013 22.5365 47.4015 22.5314C47.4018 22.5207 47.4023 22.5097 47.4026 22.499C47.4029 22.4872 47.4032 22.4754 47.4032 22.4636C47.4032 22.4596 47.4034 22.4556 47.4034 22.4515C47.4037 22.4349 47.4037 22.4183 47.4037 22.4014C47.4037 22.3848 47.4034 22.3679 47.4034 22.3513C47.4034 22.3473 47.4032 22.3433 47.4032 22.3393C47.4029 22.3285 47.4029 22.3178 47.4026 22.3071C47.4026 22.3063 47.4026 22.3049 47.4026 22.3041C47.4023 22.2934 47.4021 22.2827 47.4015 22.272C47.4013 22.2669 47.4013 22.2621 47.401 22.257C47.4007 22.2492 47.4005 22.2414 47.4002 22.2337C47.4002 22.2318 47.3999 22.2296 47.3999 22.2278C47.3999 22.2264 47.3999 22.2251 47.3997 22.224C47.3994 22.2186 47.3991 22.2136 47.3989 22.2082C47.3983 22.1967 47.3975 22.1849 47.397 22.1734C47.3967 22.1696 47.3965 22.1659 47.3962 22.1621C47.3954 22.1484 47.3943 22.1345 47.3935 22.1208C47.3935 22.1195 47.3932 22.1181 47.3932 22.1168C47.3922 22.1034 47.3914 22.0897 47.39 22.0763C47.3898 22.0734 47.3895 22.0702 47.3892 22.0672C47.3881 22.0544 47.3871 22.0415 47.3857 22.0289C47.3855 22.0276 47.3855 22.0262 47.3855 22.0251L47.4024 22.0048L48.4176 20.7671C48.4227 20.761 48.4275 20.7545 48.4323 20.7484C48.4339 20.7462 48.4355 20.7438 48.4371 20.7417C48.4403 20.7374 48.4433 20.7331 48.4465 20.7288C48.4484 20.7261 48.4503 20.7234 48.4519 20.721C48.4545 20.717 48.4572 20.713 48.4599 20.709C48.4615 20.7063 48.4634 20.7036 48.465 20.7009C48.4674 20.6969 48.4698 20.6932 48.4722 20.6891C48.4741 20.6862 48.476 20.683 48.4776 20.68C48.4797 20.6763 48.4819 20.6728 48.4838 20.669C48.4856 20.6658 48.4875 20.6623 48.4891 20.6591C48.4913 20.6554 48.4931 20.6513 48.495 20.6476C48.4966 20.6446 48.498 20.6417 48.4996 20.6387C48.5017 20.6345 48.5036 20.6302 48.5055 20.6259C48.5068 20.6229 48.5081 20.62 48.5095 20.617C48.5124 20.6101 48.5154 20.6031 48.5183 20.5961C48.5191 20.5943 48.5197 20.5924 48.5205 20.5905C48.5226 20.5854 48.5245 20.5803 48.5264 20.5752C48.5277 20.5712 48.5291 20.5675 48.5304 20.5634C48.5315 20.56 48.5328 20.5567 48.5339 20.5533C48.5352 20.5492 48.5363 20.5449 48.5376 20.5409C48.5387 20.5377 48.5395 20.5345 48.5403 20.5313C48.5416 20.527 48.5427 20.523 48.5438 20.5187C48.5446 20.5155 48.5454 20.5125 48.5462 20.5093C48.5473 20.5047 48.5483 20.5002 48.5494 20.4956C48.55 20.4932 48.5505 20.4908 48.551 20.4881C48.5521 20.483 48.5532 20.4779 48.5542 20.4726C48.5545 20.4707 48.5548 20.4691 48.555 20.4672C48.5561 20.4613 48.5572 20.4554 48.558 20.4498C48.558 20.4493 48.558 20.449 48.5583 20.4485C48.5623 20.4209 48.5647 20.3927 48.5652 20.3648C48.5652 20.364 48.5652 20.3635 48.5652 20.3627C48.5655 20.3565 48.5652 20.3501 48.5652 20.3439C48.5652 20.3426 48.5652 20.3415 48.5652 20.3402C48.5652 20.334 48.565 20.3276 48.5647 20.3212C48.5647 20.3204 48.5647 20.3193 48.5644 20.3185C48.5642 20.3118 48.5636 20.3051 48.5631 20.2981C48.5631 20.2978 48.5631 20.2978 48.5631 20.2976C48.5626 20.2906 48.5617 20.2836 48.5609 20.2764C48.5609 20.2761 48.5609 20.2761 48.5609 20.2759C48.5559 20.233 48.5465 20.1901 48.5328 20.1483C48.5328 20.1483 48.5328 20.148 48.5325 20.148C48.5304 20.1413 48.528 20.1344 48.5253 20.1277C48.5253 20.1274 48.525 20.1271 48.525 20.1271C48.5226 20.1204 48.5199 20.114 48.5173 20.1073C48.5173 20.107 48.517 20.107 48.517 20.1068C48.5057 20.0789 48.4923 20.0515 48.4771 20.0247L48.0338 19.2569C47.8974 19.0208 47.6291 18.8938 47.36 18.9382L45.7546 19.2028C45.6528 19.1299 45.5472 19.0621 45.4384 18.9988C45.4384 18.9988 45.4381 18.9988 45.4381 18.9985C45.3293 18.9356 45.2173 18.8777 45.1023 18.8251C45.1023 18.8251 45.102 18.8251 45.102 18.8249L44.5288 17.3031C44.4326 17.048 44.1884 16.8792 43.9159 16.8792H43.0293C42.7567 16.8792 42.5126 17.048 42.4164 17.3031L41.8431 18.8249C41.8431 18.8249 41.8428 18.8249 41.8428 18.8251C41.7278 18.8777 41.6158 18.9356 41.507 18.9985C41.507 18.9985 41.5067 18.9985 41.5067 18.9988C41.3979 19.0618 41.2923 19.1299 41.1905 19.2028L39.5851 18.9382C39.3161 18.894 39.0478 19.0208 38.9114 19.2569L38.4681 20.0247C38.4528 20.0513 38.4394 20.0789 38.4281 20.1068C38.4281 20.107 38.4279 20.107 38.4279 20.1073C38.4252 20.114 38.4228 20.1204 38.4201 20.1271C38.4201 20.1274 38.4198 20.1277 38.4198 20.1277C38.4174 20.1344 38.415 20.1413 38.4126 20.148C38.4126 20.1483 38.4126 20.1483 38.4123 20.1483C38.3965 20.1971 38.3863 20.2472 38.382 20.2973C38.382 20.2976 38.382 20.2978 38.382 20.2978C38.3815 20.3045 38.381 20.3112 38.3807 20.3182C38.3807 20.319 38.3807 20.3201 38.3804 20.3209C38.3802 20.3271 38.3799 20.3335 38.3799 20.3399C38.3799 20.3413 38.3799 20.3423 38.3799 20.3437C38.3799 20.3498 38.3796 20.3563 38.3799 20.3624C38.3799 20.3632 38.3799 20.3638 38.3799 20.3646C38.3804 20.3927 38.3829 20.4206 38.3869 20.4482C38.3869 20.4487 38.3869 20.449 38.3871 20.4495C38.3879 20.4554 38.389 20.4613 38.3901 20.467C38.3904 20.4688 38.3906 20.4704 38.3909 20.4723C38.392 20.4774 38.393 20.4825 38.3941 20.4879C38.3946 20.4903 38.3952 20.4927 38.3957 20.4954C38.3968 20.4999 38.3979 20.5045 38.3989 20.509C38.3997 20.5122 38.4005 20.5155 38.4013 20.5184C38.4024 20.5227 38.4035 20.5267 38.4048 20.531C38.4056 20.5342 38.4067 20.5374 38.4075 20.5407C38.4089 20.5447 38.4099 20.549 38.4113 20.553C38.4123 20.5565 38.4134 20.5597 38.4147 20.5632C38.4161 20.5672 38.4174 20.5709 38.4188 20.575C38.4206 20.5801 38.4225 20.5851 38.4247 20.5902C38.4255 20.5921 38.426 20.594 38.4268 20.5959C38.4295 20.6028 38.4324 20.6098 38.4357 20.6168C38.437 20.6197 38.4383 20.6227 38.4397 20.6256C38.4415 20.6299 38.4437 20.6342 38.4456 20.6385C38.4469 20.6414 38.4485 20.6444 38.4501 20.6473C38.452 20.6513 38.4541 20.6551 38.456 20.6588C38.4579 20.6621 38.4595 20.6655 38.4614 20.6688C38.4635 20.6725 38.4654 20.676 38.4675 20.6798C38.4694 20.6827 38.471 20.6859 38.4729 20.6889C38.4753 20.6929 38.4777 20.6966 38.4801 20.7007C38.482 20.7033 38.4836 20.706 38.4852 20.7087C38.4879 20.7127 38.4906 20.7167 38.4933 20.7208C38.4951 20.7234 38.4968 20.7261 38.4986 20.7285C38.5016 20.7328 38.5048 20.7371 38.508 20.7414C38.5096 20.7435 38.5112 20.746 38.5128 20.7481C38.5177 20.7545 38.5225 20.7607 38.5276 20.7669L39.5428 22.0045L39.5597 22.0249C39.5597 22.0262 39.5594 22.0276 39.5594 22.0286C39.5583 22.0415 39.557 22.0541 39.5559 22.067C39.5556 22.0699 39.5554 22.0731 39.5551 22.0761C39.554 22.0895 39.553 22.1029 39.5519 22.1165C39.5519 22.1179 39.5516 22.1192 39.5516 22.1206C39.5506 22.1342 39.5498 22.1482 39.549 22.1618C39.5487 22.1656 39.5484 22.1693 39.5481 22.1731C39.5476 22.1846 39.5468 22.1964 39.5463 22.2079C39.546 22.2133 39.5457 22.2184 39.5455 22.2237C39.5455 22.2251 39.5455 22.2264 39.5452 22.2278C39.5452 22.2296 39.5449 22.2315 39.5449 22.2337C39.5447 22.2414 39.5444 22.2492 39.5441 22.257C39.5439 22.2621 39.5439 22.2669 39.5436 22.272C39.5433 22.2827 39.5428 22.2934 39.5425 22.3041C39.5425 22.3049 39.5425 22.306 39.5425 22.3068C39.5423 22.3175 39.5423 22.3285 39.542 22.3393C39.542 22.3433 39.5417 22.3473 39.5417 22.3513C39.5414 22.3679 39.5414 22.3845 39.5414 22.4014C39.5414 22.418 39.5417 22.4347 39.5417 22.4515C39.5417 22.4556 39.542 22.4596 39.542 22.4636C39.5455 22.4757 39.5457 22.4872 39.546 22.499ZM41.8278 22.1557C41.8294 22.1444 41.8313 22.1329 41.8332 22.1216C41.8334 22.1203 41.8337 22.1189 41.834 22.1173C41.8358 22.1072 41.8377 22.0967 41.8396 22.0865C41.8401 22.0836 41.8407 22.0806 41.8412 22.0777C41.8431 22.0683 41.845 22.0586 41.8471 22.0493C41.8479 22.0461 41.8484 22.0431 41.8493 22.0399C41.8514 22.0305 41.8535 22.0211 41.8557 22.0117C41.8565 22.0085 41.8573 22.0056 41.8578 22.0024C41.8602 21.993 41.8627 21.9836 41.8651 21.9742C41.8659 21.9713 41.8667 21.9683 41.8675 21.9654C41.8702 21.9557 41.8728 21.9464 41.8755 21.9367C41.8761 21.9348 41.8766 21.933 41.8771 21.9311C41.8943 21.8729 41.9144 21.8161 41.9374 21.7609C41.9374 21.7606 41.9374 21.7606 41.9377 21.7604C41.9417 21.7507 41.946 21.7408 41.9503 21.7311C41.9511 21.729 41.9522 21.7269 41.953 21.725C41.957 21.7159 41.9613 21.7068 41.9653 21.6976C41.9664 21.6952 41.9674 21.6931 41.9685 21.6907C41.9725 21.6821 41.9768 21.6733 41.9811 21.6647C41.9825 21.6617 41.9841 21.659 41.9854 21.6561C41.9897 21.6478 41.994 21.6392 41.9983 21.6309C41.9996 21.6282 42.0012 21.6253 42.0026 21.6226C42.0068 21.6146 42.0111 21.6063 42.0157 21.5985C42.0176 21.5953 42.0192 21.5923 42.0208 21.5891C42.0253 21.5811 42.0299 21.5728 42.0347 21.5647C42.0358 21.5628 42.0371 21.5607 42.0382 21.5588C42.0436 21.55 42.0487 21.5409 42.054 21.5323C42.0545 21.5315 42.0548 21.5309 42.0553 21.5301C42.0803 21.4897 42.1068 21.4503 42.1352 21.4119C42.1355 21.4117 42.1358 21.4114 42.136 21.4109C42.1419 21.4031 42.1478 21.3951 42.1537 21.3873C42.1556 21.3849 42.1575 21.3825 42.1593 21.3801C42.165 21.3728 42.1706 21.3658 42.1762 21.3589C42.1784 21.3562 42.1805 21.3533 42.1829 21.3506C42.1883 21.3439 42.1939 21.3374 42.1993 21.3307C42.2019 21.3275 42.2046 21.3243 42.2073 21.3214C42.2127 21.3149 42.2183 21.3085 42.2239 21.3023C42.2266 21.2991 42.2296 21.2962 42.2322 21.293C42.2379 21.2868 42.2432 21.2806 42.2488 21.2747C42.2518 21.2715 42.2547 21.2686 42.2577 21.2653C42.2633 21.2592 42.2692 21.253 42.2748 21.2471C42.2775 21.2442 42.2805 21.2415 42.2832 21.2388C42.2891 21.2327 42.2952 21.2265 42.3014 21.2203C42.3041 21.2176 42.307 21.215 42.3097 21.2123C42.3159 21.2064 42.322 21.2002 42.3282 21.1943C42.3303 21.1925 42.3322 21.1906 42.3343 21.1887C42.3469 21.1766 42.3601 21.1648 42.3729 21.1533C42.3762 21.1504 42.3794 21.1474 42.3829 21.1445C42.3885 21.1397 42.3941 21.1348 42.4 21.13C42.404 21.1268 42.4078 21.1233 42.4118 21.1201C42.4174 21.1153 42.4233 21.1107 42.4289 21.1062C42.433 21.1029 42.4373 21.0995 42.4413 21.0962C42.4472 21.0917 42.4531 21.0871 42.459 21.0826C42.463 21.0794 42.4673 21.0761 42.4713 21.0732C42.4769 21.0689 42.4828 21.0646 42.4887 21.0603C42.4933 21.0571 42.4978 21.0536 42.5024 21.0504C42.508 21.0464 42.5139 21.0421 42.5195 21.0381C42.5244 21.0349 42.5289 21.0314 42.5337 21.0282C42.5394 21.0244 42.545 21.0207 42.5506 21.0169C42.5557 21.0134 42.5608 21.0102 42.5656 21.007C42.5713 21.0032 42.5772 20.9995 42.5828 20.9957C42.5879 20.9925 42.593 20.9893 42.5981 20.9861C42.6037 20.9826 42.6093 20.9791 42.6149 20.9756C42.6203 20.9724 42.6257 20.9692 42.631 20.9663C42.6367 20.963 42.6423 20.9596 42.6479 20.9563C42.6538 20.9529 42.6597 20.9496 42.6656 20.9464C42.6747 20.9413 42.6838 20.9365 42.6929 20.9314C42.6999 20.9277 42.7071 20.9239 42.7144 20.9202C42.7192 20.9177 42.724 20.9153 42.7291 20.9127C42.7358 20.9094 42.7422 20.906 42.7489 20.9027C42.7546 20.9001 42.7599 20.8974 42.7656 20.895C42.7717 20.892 42.7779 20.8891 42.7841 20.8864C42.7897 20.884 42.795 20.8813 42.8007 20.8789C42.8068 20.8762 42.813 20.8735 42.8192 20.8708C42.8251 20.8684 42.831 20.866 42.8366 20.8636C42.8428 20.8609 42.8492 20.8585 42.8556 20.8558C42.8612 20.8537 42.8669 20.8513 42.8725 20.8491C42.8789 20.8467 42.8854 20.8443 42.8918 20.8419C42.8974 20.8398 42.9031 20.8376 42.9087 20.8357C42.9154 20.8333 42.9224 20.8309 42.9291 20.8285C42.9347 20.8266 42.9403 20.8245 42.9459 20.8226C42.9529 20.8202 42.9596 20.818 42.9666 20.8159C42.9719 20.8143 42.9773 20.8124 42.9824 20.8108C42.9907 20.8081 42.9993 20.8057 43.0076 20.8033C43.0116 20.802 43.0159 20.8009 43.0199 20.7996C43.0325 20.7961 43.0451 20.7926 43.058 20.7894H43.0582C43.0708 20.7862 43.0834 20.7832 43.096 20.7803C43.1008 20.7792 43.1054 20.7781 43.1102 20.777C43.1185 20.7752 43.1268 20.7733 43.1351 20.7717C43.1402 20.7706 43.1451 20.7698 43.1502 20.7687C43.1582 20.7671 43.166 20.7655 43.174 20.7642C43.1799 20.7631 43.1858 20.762 43.1917 20.7612C43.1989 20.7599 43.2062 20.7588 43.2131 20.7577C43.219 20.7567 43.2249 20.7559 43.2308 20.7551C43.2383 20.754 43.2458 20.7529 43.2533 20.7518C43.259 20.751 43.2646 20.7505 43.2702 20.7497C43.278 20.7489 43.2855 20.7478 43.2933 20.747C43.2992 20.7465 43.3051 20.7457 43.311 20.7451C43.3185 20.7443 43.3262 20.7438 43.334 20.743C43.3399 20.7425 43.3455 20.7419 43.3514 20.7417C43.3589 20.7411 43.3664 20.7406 43.3739 20.7403C43.3801 20.7401 43.3863 20.7395 43.3924 20.7393C43.401 20.7387 43.4096 20.7384 43.4182 20.7382C43.423 20.7379 43.4278 20.7379 43.4326 20.7376C43.4463 20.7374 43.46 20.7371 43.4739 20.7371C43.4878 20.7371 43.5015 20.7374 43.5152 20.7376C43.52 20.7379 43.5248 20.7379 43.5297 20.7382C43.5382 20.7384 43.5468 20.7387 43.5554 20.7393C43.5615 20.7395 43.5677 20.7401 43.5739 20.7403C43.5814 20.7409 43.5889 20.7411 43.5964 20.7417C43.6023 20.7422 43.6079 20.7425 43.6138 20.743C43.6216 20.7435 43.6291 20.7443 43.6369 20.7451C43.6428 20.7457 43.6486 20.7465 43.6545 20.747C43.6623 20.7478 43.6698 20.7486 43.6776 20.7497C43.6832 20.7505 43.6888 20.751 43.6945 20.7518C43.702 20.7529 43.7095 20.754 43.717 20.7551C43.7229 20.7559 43.7288 20.7569 43.7347 20.7577C43.7419 20.7588 43.7489 20.7602 43.7561 20.7612C43.762 20.7623 43.7679 20.7631 43.7738 20.7642C43.7818 20.7655 43.7896 20.7671 43.7977 20.7687C43.8028 20.7698 43.8076 20.7706 43.8127 20.7717C43.821 20.7736 43.8293 20.7752 43.8376 20.777C43.8424 20.7781 43.847 20.7792 43.8518 20.7803C43.8644 20.7832 43.877 20.7862 43.8896 20.7894C43.9022 20.7926 43.9153 20.7961 43.9279 20.7996C43.9319 20.8006 43.9362 20.802 43.9402 20.8033C43.9485 20.8057 43.9571 20.8081 43.9654 20.8108C43.9708 20.8124 43.9762 20.8143 43.9812 20.8159C43.9882 20.818 43.9952 20.8202 44.0019 20.8226C44.0075 20.8245 44.0131 20.8264 44.0188 20.8285C44.0255 20.8309 44.0324 20.8333 44.0391 20.8357C44.0448 20.8379 44.0504 20.8398 44.056 20.8419C44.0624 20.8443 44.0689 20.8467 44.0753 20.8491C44.0809 20.8513 44.0866 20.8537 44.0922 20.8558C44.0986 20.8582 44.1048 20.8609 44.1112 20.8636C44.1171 20.866 44.1228 20.8684 44.1287 20.8708C44.1348 20.8735 44.141 20.8762 44.1471 20.8789C44.1528 20.8813 44.1584 20.8837 44.1638 20.8864C44.1699 20.8893 44.1761 20.892 44.1823 20.895C44.1879 20.8976 44.1932 20.9001 44.1986 20.9027C44.2053 20.906 44.2117 20.9092 44.2184 20.9127C44.2233 20.9151 44.2283 20.9175 44.2332 20.9202C44.2404 20.9239 44.2474 20.9277 44.2546 20.9314C44.2637 20.9362 44.2728 20.9413 44.2819 20.9464C44.2878 20.9496 44.2937 20.9531 44.2996 20.9563C44.3053 20.9596 44.3109 20.963 44.3165 20.9663C44.3219 20.9695 44.3272 20.9724 44.3326 20.9756C44.3382 20.9791 44.3439 20.9826 44.3495 20.9861C44.3546 20.9893 44.3597 20.9925 44.3648 20.9957C44.3704 20.9995 44.3763 21.0032 44.3819 21.007C44.387 21.0102 44.3921 21.0137 44.3969 21.0169C44.4026 21.0207 44.4082 21.0244 44.4138 21.0282C44.4186 21.0314 44.4235 21.0346 44.428 21.0381C44.4336 21.0421 44.4395 21.0461 44.4452 21.0504C44.4497 21.0536 44.4543 21.0571 44.4588 21.0603C44.4647 21.0646 44.4704 21.0689 44.4763 21.0732C44.4805 21.0764 44.4846 21.0796 44.4886 21.0826C44.4945 21.0871 44.5004 21.0917 44.5063 21.0962C44.5103 21.0995 44.5146 21.1029 44.5186 21.1062C44.5242 21.1107 44.5301 21.1155 44.5358 21.1201C44.5398 21.1233 44.5435 21.1268 44.5475 21.13C44.5532 21.1348 44.5591 21.1397 44.5647 21.1445C44.5679 21.1474 44.5711 21.1504 44.5746 21.1533C44.5877 21.1648 44.6006 21.1766 44.6132 21.1887C44.6153 21.1906 44.6172 21.1925 44.6194 21.1943C44.6255 21.2002 44.6317 21.2064 44.6379 21.2123C44.6405 21.215 44.6435 21.2176 44.6462 21.2203C44.6523 21.2265 44.6582 21.2327 44.6644 21.2388C44.6671 21.2415 44.67 21.2444 44.6727 21.2471C44.6786 21.253 44.6842 21.2592 44.6899 21.2653C44.6928 21.2686 44.6958 21.2715 44.6987 21.2747C44.7043 21.2809 44.7097 21.2868 44.7153 21.293C44.718 21.2962 44.7209 21.2991 44.7236 21.3023C44.7293 21.3085 44.7346 21.3149 44.7402 21.3214C44.7429 21.3246 44.7456 21.3275 44.7483 21.3307C44.7539 21.3372 44.7593 21.3439 44.7646 21.3506C44.7668 21.3533 44.7692 21.3562 44.7713 21.3589C44.777 21.3658 44.7826 21.3731 44.7882 21.3801C44.7901 21.3825 44.792 21.3849 44.7938 21.3873C44.7997 21.3951 44.8059 21.4028 44.8115 21.4109C44.8118 21.4111 44.8121 21.4117 44.8123 21.4119C44.8405 21.45 44.867 21.4894 44.8922 21.5301C44.8927 21.5309 44.893 21.5315 44.8935 21.5323C44.8989 21.5411 44.9043 21.55 44.9094 21.5588C44.9104 21.5607 44.9118 21.5626 44.9128 21.5647C44.9174 21.5728 44.9222 21.5808 44.9268 21.5891C44.9284 21.5923 44.9303 21.5953 44.9319 21.5985C44.9364 21.6065 44.9407 21.6146 44.945 21.6226C44.9463 21.6253 44.9479 21.628 44.9493 21.6309C44.9536 21.6392 44.9579 21.6475 44.9622 21.6561C44.9635 21.659 44.9651 21.662 44.9664 21.6647C44.9707 21.6733 44.9747 21.6818 44.979 21.6907C44.9801 21.6931 44.9812 21.6952 44.9823 21.6976C44.9865 21.7068 44.9906 21.7159 44.9946 21.725C44.9954 21.7271 44.9965 21.7293 44.9973 21.7311C45.0015 21.7408 45.0058 21.7504 45.0099 21.7604C45.0099 21.7606 45.0099 21.7606 45.0101 21.7609C45.0332 21.8161 45.0533 21.8729 45.0704 21.9311C45.071 21.933 45.0715 21.9348 45.072 21.9367C45.0747 21.9464 45.0774 21.9557 45.0801 21.9654C45.0809 21.9683 45.0817 21.9713 45.0825 21.9742C45.0849 21.9836 45.0873 21.993 45.0897 22.0024C45.0905 22.0056 45.0913 22.0085 45.0919 22.0117C45.094 22.0211 45.0962 22.0305 45.0983 22.0399C45.0991 22.0431 45.0996 22.0461 45.1004 22.0493C45.1023 22.0586 45.1045 22.0683 45.1063 22.0777C45.1069 22.0806 45.1074 22.0836 45.1079 22.0865C45.1098 22.0967 45.1117 22.1069 45.1136 22.1173C45.1138 22.1187 45.1141 22.12 45.1144 22.1216C45.1163 22.1329 45.1181 22.1441 45.1197 22.1557C45.1315 22.2358 45.138 22.3181 45.138 22.4017C45.138 23.321 44.3926 24.0663 43.4734 24.0663C42.5541 24.0663 41.8088 23.321 41.8088 22.4017C41.8096 22.3181 41.816 22.2361 41.8278 22.1557Z" fill="#382B73"/>
<path d="M25.4692 43.7159C25.4743 43.7097 25.4791 43.7033 25.484 43.6968C25.4856 43.6947 25.4872 43.6926 25.4888 43.6902C25.492 43.6859 25.4949 43.6816 25.4982 43.6773C25.5 43.6746 25.5016 43.6719 25.5035 43.6692C25.5062 43.6652 25.5089 43.6612 25.5116 43.6572C25.5134 43.6545 25.515 43.6518 25.5167 43.6491C25.5191 43.6451 25.5215 43.6414 25.5239 43.6374C25.5258 43.6344 25.5276 43.6312 25.5293 43.628C25.5314 43.6242 25.5333 43.6207 25.5354 43.617C25.5373 43.6138 25.5392 43.6103 25.5408 43.6071C25.5429 43.6033 25.5448 43.5993 25.5467 43.5955C25.5483 43.5926 25.5496 43.5896 25.5512 43.5867C25.5534 43.5824 25.5552 43.5781 25.5571 43.5738C25.5585 43.5709 25.5598 43.5679 25.5611 43.565C25.5644 43.558 25.567 43.5511 25.57 43.5441C25.5708 43.5422 25.5713 43.5403 25.5721 43.5385C25.5743 43.5334 25.5762 43.5283 25.578 43.5232C25.5794 43.5192 25.5807 43.5154 25.5821 43.5114C25.5831 43.5079 25.5845 43.5047 25.5855 43.5012C25.5869 43.4972 25.5879 43.4932 25.5893 43.4889C25.5904 43.4857 25.5912 43.4824 25.592 43.4792C25.5933 43.4749 25.5944 43.4709 25.5954 43.4666C25.5963 43.4634 25.5971 43.4605 25.5979 43.4573C25.5989 43.4527 25.6 43.4481 25.6011 43.4436C25.6016 43.4412 25.6021 43.4388 25.6027 43.4361C25.6038 43.431 25.6048 43.4259 25.6059 43.4205C25.6062 43.4187 25.6064 43.4171 25.6067 43.4152C25.6078 43.4093 25.6089 43.4034 25.6097 43.3978C25.6097 43.3972 25.6097 43.3969 25.6099 43.3964C25.6139 43.3688 25.6164 43.3407 25.6169 43.3128C25.6169 43.312 25.6169 43.3115 25.6169 43.3107C25.6169 43.3045 25.6169 43.2981 25.6169 43.2919C25.6169 43.2905 25.6169 43.2895 25.6169 43.2881C25.6166 43.2817 25.6166 43.2755 25.6164 43.2691C25.6164 43.2683 25.6164 43.2672 25.6164 43.2664C25.6161 43.2597 25.6156 43.253 25.615 43.2461C25.615 43.2458 25.615 43.2455 25.615 43.2455C25.6145 43.2386 25.6137 43.2313 25.6129 43.2244C25.6129 43.2241 25.6129 43.2241 25.6129 43.2238C25.6078 43.1807 25.5984 43.1381 25.5847 43.0962C25.5847 43.096 25.5847 43.096 25.5847 43.096C25.5826 43.0893 25.5802 43.0823 25.5778 43.0756C25.5778 43.0753 25.5778 43.0751 25.5775 43.0748C25.5751 43.0681 25.5724 43.0617 25.5697 43.055C25.5697 43.0547 25.5697 43.0547 25.5695 43.0544C25.5582 43.0266 25.5451 42.9992 25.5295 42.9724L25.0862 42.2046C24.9498 41.9685 24.6815 41.8414 24.4125 41.8859L22.8071 42.1504C22.7819 42.1325 22.7565 42.1145 22.7307 42.0971C22.7305 42.0969 22.7302 42.0966 22.7297 42.0966C22.7042 42.0792 22.6785 42.0623 22.6525 42.0457C22.6519 42.0454 22.6514 42.0449 22.6509 42.0446C22.5983 42.0108 22.545 41.9781 22.4909 41.9468C22.4638 41.931 22.4362 41.9157 22.4086 41.9007C22.4086 41.9007 22.4083 41.9007 22.408 41.9004C22.3531 41.8704 22.2974 41.8414 22.2408 41.8141C22.2403 41.8138 22.24 41.8136 22.2395 41.8136C22.2111 41.7999 22.1827 41.7865 22.1542 41.7734L21.581 40.2516C21.4848 39.9965 21.2406 39.8276 20.968 39.8276H20.0815C19.8089 39.8276 19.5648 39.9965 19.4685 40.2516L18.8953 41.7734C18.8666 41.7865 18.8382 41.7999 18.8101 41.8136C18.8095 41.8138 18.8093 41.8138 18.8087 41.8141C18.7522 41.8414 18.6964 41.8704 18.6415 41.9004C18.6412 41.9004 18.6412 41.9007 18.6409 41.9007C18.6133 41.9157 18.586 41.9312 18.5589 41.9468C18.5048 41.9781 18.4512 42.0108 18.3987 42.0446C18.3981 42.0449 18.3976 42.0454 18.3971 42.0457C18.3711 42.0623 18.3453 42.0794 18.3199 42.0966C18.3196 42.0969 18.3193 42.0971 18.3188 42.0971C18.2931 42.1145 18.2676 42.1325 18.2424 42.1504L16.6371 41.8859C16.368 41.8417 16.0997 41.9685 15.9633 42.2046L15.52 42.9724C15.5047 42.999 15.4913 43.0266 15.4801 43.0544C15.4801 43.0547 15.4798 43.0547 15.4798 43.055C15.4771 43.0617 15.4747 43.0681 15.472 43.0748C15.472 43.0751 15.4718 43.0753 15.4718 43.0756C15.4694 43.0823 15.4669 43.0893 15.4645 43.096C15.4645 43.0962 15.4645 43.0962 15.4645 43.0962C15.4484 43.145 15.4385 43.1951 15.4342 43.2453C15.4342 43.2455 15.4342 43.2458 15.4342 43.2458C15.4337 43.2525 15.4332 43.2592 15.4329 43.2662C15.4329 43.267 15.4329 43.268 15.4329 43.2688C15.4326 43.275 15.4324 43.2814 15.4324 43.2879C15.4324 43.2892 15.4324 43.2903 15.4324 43.2916C15.4324 43.2978 15.4324 43.3042 15.4324 43.3104C15.4324 43.3112 15.4324 43.3117 15.4324 43.3125C15.4329 43.3407 15.4353 43.3685 15.4393 43.3961C15.4393 43.3967 15.4393 43.3969 15.4396 43.3975C15.4404 43.4034 15.4415 43.4093 15.4426 43.4149C15.4428 43.4168 15.4431 43.4184 15.4434 43.4203C15.4444 43.4254 15.4455 43.4305 15.4466 43.4358C15.4471 43.4382 15.4476 43.4409 15.4482 43.4433C15.4493 43.4479 15.4503 43.4524 15.4514 43.457C15.4522 43.4602 15.453 43.4631 15.4538 43.4664C15.4549 43.4707 15.456 43.4749 15.4573 43.479C15.4581 43.4822 15.4592 43.4854 15.4602 43.4886C15.4616 43.4926 15.4627 43.4969 15.464 43.5009C15.4651 43.5044 15.4664 43.5079 15.4675 43.5111C15.4688 43.5151 15.4702 43.5189 15.4715 43.5229C15.4734 43.528 15.4752 43.5331 15.4774 43.5382C15.4782 43.5401 15.4787 43.5419 15.4795 43.5438C15.4822 43.5508 15.4852 43.5578 15.4884 43.5647C15.4897 43.5677 15.4911 43.5706 15.4924 43.5736C15.4943 43.5779 15.4964 43.5821 15.4983 43.5864C15.4996 43.5894 15.5012 43.5923 15.5029 43.5953C15.5047 43.5993 15.5069 43.603 15.5088 43.6068C15.5106 43.61 15.5122 43.6135 15.5141 43.6167C15.516 43.6205 15.5181 43.624 15.5203 43.6277C15.5222 43.6309 15.5238 43.6339 15.5256 43.6371C15.528 43.6411 15.5305 43.6449 15.5329 43.6489C15.5347 43.6516 15.5364 43.6542 15.538 43.6569C15.5406 43.6609 15.5433 43.665 15.546 43.669C15.5479 43.6717 15.5495 43.6743 15.5514 43.677C15.5543 43.6813 15.5575 43.6856 15.5607 43.6899C15.5624 43.692 15.564 43.6944 15.5656 43.6966C15.5704 43.703 15.5752 43.7092 15.5803 43.7156L16.5955 44.9533L16.6124 44.9736C16.6124 44.975 16.6121 44.9763 16.6121 44.9774C16.6111 44.9902 16.6097 45.0031 16.6086 45.0157C16.6084 45.0187 16.6081 45.0219 16.6078 45.0248C16.6068 45.0382 16.6057 45.0516 16.6046 45.0653C16.6046 45.0666 16.6044 45.068 16.6044 45.0693C16.6033 45.083 16.6025 45.0969 16.6017 45.1106C16.6014 45.1143 16.6011 45.1181 16.6011 45.1218C16.6006 45.1334 16.5998 45.1449 16.5993 45.1567C16.599 45.162 16.5987 45.1671 16.5985 45.1725C16.5985 45.1738 16.5985 45.1752 16.5982 45.1762C16.5982 45.1781 16.5979 45.1803 16.5979 45.1821C16.5977 45.1899 16.5974 45.1977 16.5969 45.2055C16.5966 45.2105 16.5966 45.2154 16.5963 45.2205C16.5961 45.2312 16.5955 45.2419 16.5953 45.2526C16.5953 45.2534 16.5953 45.2545 16.5953 45.2553V45.2556C16.595 45.2663 16.595 45.277 16.5947 45.2877C16.5947 45.2918 16.5944 45.2958 16.5944 45.2998C16.5942 45.3164 16.5942 45.333 16.5942 45.3496C16.5942 45.3663 16.5944 45.3829 16.5944 45.3998C16.5944 45.4038 16.5947 45.4078 16.5947 45.4118C16.595 45.4236 16.595 45.4354 16.5953 45.4472C16.5955 45.4579 16.5958 45.4686 16.5963 45.4794C16.5966 45.4842 16.5966 45.4893 16.5969 45.4944C16.5971 45.5054 16.5977 45.5163 16.5982 45.5273C16.5985 45.5327 16.5987 45.5381 16.599 45.5431C16.5995 45.5547 16.6003 45.5665 16.6009 45.578C16.6011 45.5817 16.6011 45.5855 16.6014 45.5892C16.6022 45.6029 16.6033 45.6168 16.6041 45.6305C16.6044 45.6319 16.6044 45.6332 16.6044 45.6345C16.6054 45.6479 16.6062 45.6616 16.6076 45.675C16.6078 45.678 16.6081 45.6812 16.6084 45.6841C16.6095 45.697 16.6105 45.7098 16.6119 45.7227C16.6119 45.7241 16.6121 45.7251 16.6121 45.7265L15.5803 46.9845C15.5377 47.0365 15.5039 47.0938 15.4795 47.1541C15.4752 47.1649 15.4712 47.1758 15.4675 47.1868C15.4669 47.1884 15.4664 47.1901 15.4659 47.1917C15.4624 47.2024 15.4589 47.2134 15.4557 47.2244C15.4527 47.2353 15.4498 47.2466 15.4474 47.2576C15.4468 47.2595 15.4466 47.2613 15.446 47.2632C15.4415 47.2855 15.4377 47.3077 15.4353 47.3302C15.435 47.3321 15.435 47.334 15.4348 47.3358C15.4326 47.3584 15.4316 47.3806 15.4316 47.4034C15.4316 47.4055 15.4316 47.4077 15.4316 47.4098C15.4318 47.4321 15.4334 47.4546 15.4359 47.4768C15.4361 47.479 15.4364 47.4814 15.4367 47.4835C15.438 47.4942 15.4396 47.5052 15.4415 47.5159C15.4415 47.5162 15.4415 47.5165 15.4415 47.5167C15.4434 47.5277 15.4458 47.5387 15.4484 47.5494C15.449 47.5519 15.4495 47.5543 15.4501 47.5567C15.4527 47.5674 15.4554 47.5781 15.4586 47.5886V47.5888C15.4618 47.5996 15.4653 47.61 15.4691 47.6207C15.4699 47.6231 15.471 47.6256 15.4718 47.6282C15.4755 47.6387 15.4798 47.6491 15.4841 47.6596C15.4886 47.67 15.4935 47.6802 15.4986 47.6904C15.4999 47.6928 15.501 47.6952 15.5023 47.6977C15.5074 47.7078 15.5128 47.7178 15.5184 47.7277L15.9617 48.4955C16.0981 48.7316 16.3664 48.8587 16.6354 48.8142L18.2408 48.5496C18.3172 48.6041 18.3955 48.656 18.4756 48.7051C18.4759 48.7054 18.4761 48.7054 18.4764 48.7056C18.5029 48.722 18.53 48.7378 18.5571 48.7536C18.5571 48.7536 18.5571 48.7536 18.5573 48.7539C18.5844 48.7697 18.6117 48.785 18.6393 48.8C18.6396 48.8 18.6396 48.8 18.6399 48.8002C18.7227 48.8455 18.8071 48.8879 18.8934 48.9273C18.8934 48.9273 18.8937 48.9273 18.8937 48.9275L19.4669 50.4493C19.5632 50.7044 19.8073 50.8733 20.0799 50.8733H20.9664C21.239 50.8733 21.4832 50.7044 21.5794 50.4493L22.1526 48.9275C22.1526 48.9275 22.1529 48.9275 22.1529 48.9273C22.2392 48.8879 22.3236 48.8455 22.4064 48.8002C22.4067 48.8002 22.4067 48.8 22.407 48.8C22.4346 48.785 22.4619 48.7694 22.489 48.7539C22.489 48.7539 22.489 48.7539 22.4893 48.7536C22.5163 48.7378 22.5431 48.722 22.5699 48.7056C22.5702 48.7054 22.5705 48.7054 22.5707 48.7051C22.6509 48.656 22.7291 48.6043 22.8055 48.5496L24.4109 48.8142C24.6799 48.8584 24.9482 48.7316 25.0846 48.4955L25.5279 47.7277C25.5335 47.7178 25.5389 47.7078 25.544 47.6977C25.5453 47.6952 25.5464 47.6928 25.5477 47.6904C25.5528 47.6802 25.5577 47.67 25.5622 47.6596C25.5668 47.6494 25.5708 47.639 25.5745 47.6282C25.5754 47.6258 25.5764 47.6234 25.5772 47.6207C25.581 47.6103 25.5847 47.5996 25.5879 47.5888V47.5886C25.5912 47.5779 25.5938 47.5674 25.5965 47.5567C25.5971 47.5543 25.5976 47.5519 25.5981 47.5494C25.6008 47.5387 25.603 47.5277 25.6051 47.5167C25.6051 47.5165 25.6051 47.5162 25.6051 47.5159C25.607 47.5052 25.6086 47.4942 25.6099 47.4835C25.6102 47.4814 25.6105 47.479 25.6107 47.4768C25.6134 47.4546 25.6147 47.4323 25.615 47.4098C25.615 47.4077 25.615 47.4055 25.615 47.4034C25.6153 47.3809 25.6142 47.3584 25.6118 47.3358C25.6115 47.334 25.6115 47.3321 25.6113 47.3302C25.6089 47.3077 25.6054 47.2855 25.6005 47.2632C25.6 47.2613 25.5997 47.2595 25.5992 47.2576C25.5968 47.2463 25.5941 47.2353 25.5909 47.2244C25.5877 47.2134 25.5845 47.2026 25.5807 47.1917C25.5802 47.1901 25.5796 47.1884 25.5791 47.1868C25.5753 47.1758 25.5713 47.1651 25.567 47.1544C25.5427 47.0941 25.5092 47.0365 25.4663 46.9845L24.4344 45.7265C24.4344 45.7251 24.4347 45.7241 24.4347 45.7227C24.4358 45.7098 24.4371 45.697 24.4382 45.6841C24.4385 45.6812 24.4387 45.678 24.439 45.675C24.4401 45.6616 24.4411 45.6482 24.4422 45.6345C24.4422 45.6332 24.4425 45.6319 24.4425 45.6305C24.4436 45.6168 24.4444 45.6029 24.4452 45.5892C24.4454 45.5855 24.4457 45.5817 24.4457 45.578C24.4462 45.5665 24.447 45.5547 24.4476 45.5431C24.4478 45.5378 24.4481 45.5327 24.4484 45.5273C24.4489 45.5163 24.4495 45.5054 24.4497 45.4944C24.45 45.4893 24.45 45.4845 24.4503 45.4794C24.4505 45.4686 24.4511 45.4579 24.4513 45.4472C24.4516 45.4354 24.4519 45.4236 24.4521 45.4118C24.4521 45.4078 24.4524 45.4038 24.4524 45.3998C24.4527 45.3831 24.4527 45.3665 24.4527 45.3496C24.4527 45.333 24.4524 45.3164 24.4524 45.2998C24.4524 45.2958 24.4521 45.2918 24.4521 45.2877C24.4519 45.277 24.4519 45.2663 24.4516 45.2556V45.2553C24.4516 45.2545 24.4516 45.2534 24.4516 45.2526C24.4513 45.2419 24.4511 45.2312 24.4505 45.2205C24.4503 45.2156 24.4503 45.2105 24.45 45.2055C24.4497 45.1977 24.4495 45.1899 24.4489 45.1821C24.4489 45.1803 24.4486 45.1784 24.4486 45.1762C24.4486 45.1749 24.4486 45.1736 24.4484 45.1722C24.4481 45.1669 24.4478 45.1615 24.4476 45.1564C24.447 45.1449 24.4462 45.1331 24.4457 45.1216C24.4454 45.1178 24.4454 45.1141 24.4452 45.1103C24.4444 45.0966 24.4436 45.0827 24.4425 45.069C24.4422 45.0677 24.4422 45.0664 24.4422 45.065C24.4411 45.0516 24.4403 45.038 24.439 45.0246C24.4387 45.0216 24.4385 45.0184 24.4382 45.0154C24.4371 45.0026 24.4361 44.9897 24.4347 44.9771C24.4344 44.9758 24.4344 44.9744 24.4344 44.9734L24.4513 44.953L25.4692 43.7159ZM18.8792 45.1044C18.8808 45.0932 18.8827 45.0816 18.8846 45.0704C18.8848 45.069 18.8851 45.0677 18.8854 45.0661C18.8872 45.0559 18.8891 45.0455 18.891 45.0353C18.8915 45.0323 18.8921 45.0294 18.8926 45.0264C18.8945 45.017 18.8964 45.0074 18.8985 44.998C18.8993 44.9948 18.8998 44.9919 18.9006 44.9886C18.9028 44.9793 18.9049 44.9699 18.9071 44.9605C18.9079 44.9573 18.9087 44.9543 18.9092 44.9511C18.9116 44.9417 18.914 44.9324 18.9165 44.923C18.9173 44.92 18.9181 44.9171 18.9189 44.9141C18.9215 44.9045 18.9242 44.8951 18.9269 44.8855C18.9274 44.8836 18.928 44.8817 18.9285 44.8798C18.9457 44.8217 18.9658 44.7649 18.9888 44.7096C18.9888 44.7094 18.9888 44.7094 18.9891 44.7091C18.9931 44.6995 18.9974 44.6895 19.0017 44.6799C19.0028 44.6778 19.0036 44.6756 19.0044 44.6737C19.0084 44.6646 19.0127 44.6555 19.017 44.6464C19.018 44.644 19.0191 44.6418 19.0202 44.6394C19.0242 44.6309 19.0285 44.622 19.0328 44.6134C19.0341 44.6105 19.0357 44.6078 19.0371 44.6049C19.0413 44.5965 19.0456 44.588 19.0499 44.5797C19.0513 44.577 19.0529 44.5743 19.0542 44.5714C19.0585 44.5633 19.0628 44.555 19.0673 44.5472C19.0692 44.544 19.0708 44.5411 19.0724 44.5379C19.077 44.5298 19.0815 44.5215 19.0864 44.5135C19.0874 44.5116 19.0888 44.5094 19.0899 44.5076C19.0952 44.4987 19.1003 44.4899 19.1057 44.481C19.1062 44.4802 19.1065 44.4797 19.107 44.4789C19.1319 44.4384 19.1585 44.399 19.1869 44.3607C19.1871 44.3604 19.1874 44.3599 19.1877 44.3596C19.1936 44.3519 19.1995 44.3438 19.2054 44.336C19.2072 44.3336 19.2091 44.3312 19.211 44.3288C19.2166 44.3216 19.2223 44.3146 19.2279 44.3076C19.23 44.305 19.2322 44.3023 19.2346 44.2993C19.2399 44.2926 19.2456 44.2862 19.2509 44.2795C19.2536 44.2763 19.2563 44.2731 19.259 44.2701C19.2643 44.2637 19.27 44.2573 19.2756 44.2511C19.2783 44.2479 19.2812 44.2449 19.2839 44.2417C19.2895 44.2355 19.2949 44.2294 19.3005 44.2235C19.3035 44.2203 19.3064 44.2173 19.3094 44.2141C19.315 44.2079 19.3209 44.2018 19.3265 44.1959C19.3292 44.1929 19.3321 44.1903 19.3348 44.1876C19.3407 44.1814 19.3469 44.1752 19.353 44.1691C19.3557 44.1664 19.3587 44.1637 19.3613 44.161C19.3675 44.1551 19.3737 44.149 19.3798 44.1431C19.3817 44.1412 19.3839 44.1393 19.386 44.1375C19.3986 44.1254 19.4117 44.1136 19.4246 44.1021C19.4278 44.0991 19.431 44.0962 19.4345 44.0932C19.4401 44.0884 19.446 44.0836 19.4517 44.0788C19.4554 44.0755 19.4594 44.0721 19.4635 44.0688C19.4691 44.064 19.475 44.0595 19.4806 44.0549C19.4846 44.0517 19.4889 44.0482 19.4929 44.045C19.4988 44.0404 19.5047 44.0359 19.5106 44.0313C19.5146 44.0281 19.5189 44.0249 19.523 44.0219C19.5286 44.0177 19.5345 44.0134 19.5404 44.0091C19.5449 44.0059 19.5495 44.0024 19.554 43.9992C19.5597 43.9951 19.5656 43.9909 19.5712 43.9868C19.576 43.9836 19.5806 43.9801 19.5854 43.9769C19.591 43.9732 19.5967 43.9694 19.6023 43.9657C19.6074 43.9622 19.6122 43.959 19.6173 43.9557C19.6229 43.952 19.6288 43.9482 19.6344 43.9445C19.6395 43.9413 19.6446 43.9381 19.6497 43.9348C19.6553 43.9314 19.661 43.9279 19.6666 43.9244C19.672 43.9212 19.6773 43.918 19.6827 43.9147C19.6883 43.9115 19.6939 43.908 19.6996 43.9048C19.7055 43.9013 19.7114 43.8981 19.7173 43.8949C19.7264 43.8898 19.7355 43.885 19.7446 43.8799C19.7516 43.8761 19.7588 43.8724 19.766 43.8686C19.7709 43.8662 19.776 43.8638 19.7808 43.8614C19.7872 43.8582 19.7939 43.8547 19.8006 43.8515C19.8062 43.8488 19.8116 43.8461 19.8172 43.8437C19.8234 43.8408 19.8296 43.8378 19.8357 43.8351C19.8413 43.8327 19.847 43.83 19.8523 43.8276C19.8585 43.825 19.8647 43.8223 19.8708 43.8196C19.8767 43.8172 19.8824 43.8148 19.8882 43.8124C19.8944 43.8097 19.9008 43.8073 19.9073 43.8046C19.9129 43.8024 19.9185 43.8 19.9242 43.7979C19.9306 43.7955 19.937 43.7931 19.9435 43.7907C19.9491 43.7885 19.9547 43.7864 19.9603 43.7845C19.967 43.7821 19.974 43.7797 19.9807 43.7773C19.9863 43.7754 19.992 43.7735 19.9976 43.7714C20.0046 43.7689 20.0115 43.7668 20.0182 43.7647C20.0236 43.763 20.029 43.7612 20.0343 43.7596C20.0426 43.7569 20.0512 43.7545 20.0595 43.7521C20.0635 43.7507 20.0678 43.7496 20.0718 43.7483C20.0844 43.7448 20.097 43.7413 20.1099 43.7381C20.1225 43.7349 20.1354 43.732 20.1479 43.729C20.1528 43.7279 20.1573 43.7269 20.1622 43.7258C20.1705 43.7239 20.1788 43.722 20.1871 43.7204C20.1922 43.7194 20.197 43.7186 20.2021 43.7175C20.2101 43.7159 20.2179 43.7143 20.2259 43.7129C20.2318 43.7119 20.2377 43.7108 20.2436 43.7097C20.2509 43.7084 20.2578 43.7073 20.2651 43.7062C20.271 43.7052 20.2769 43.7044 20.2828 43.7036C20.2903 43.7025 20.2978 43.7014 20.3053 43.7003C20.3109 43.6995 20.3165 43.699 20.3222 43.6982C20.3299 43.6974 20.3374 43.6963 20.3452 43.6955C20.3511 43.695 20.357 43.6942 20.3629 43.6936C20.3704 43.6928 20.3782 43.6923 20.3859 43.6915C20.3918 43.691 20.3975 43.6904 20.4034 43.6902C20.4109 43.6896 20.4184 43.6891 20.4259 43.6888C20.432 43.6885 20.4382 43.688 20.4444 43.6877C20.4529 43.6875 20.4615 43.6869 20.4701 43.6867C20.4749 43.6864 20.4797 43.6864 20.4846 43.6861C20.4982 43.6859 20.5119 43.6856 20.5258 43.6856C20.5395 43.6856 20.5534 43.6859 20.5671 43.6861C20.5719 43.6861 20.5768 43.6864 20.5816 43.6867C20.5902 43.6869 20.5987 43.6872 20.6073 43.6877C20.6135 43.688 20.6196 43.6885 20.6258 43.6888C20.6333 43.6893 20.6408 43.6896 20.6483 43.6902C20.6542 43.6907 20.6598 43.691 20.6657 43.6915C20.6735 43.692 20.681 43.6928 20.6888 43.6936C20.6947 43.6942 20.7006 43.695 20.7065 43.6955C20.7142 43.6963 20.7217 43.6971 20.7295 43.6982C20.7351 43.699 20.7408 43.6995 20.7464 43.7003C20.7539 43.7014 20.7614 43.7025 20.7689 43.7036C20.7748 43.7044 20.7807 43.7054 20.7866 43.7062C20.7938 43.7073 20.8008 43.7086 20.808 43.7097C20.8139 43.7108 20.8198 43.7116 20.8257 43.7129C20.8338 43.7143 20.8415 43.7159 20.8496 43.7175C20.8547 43.7186 20.8595 43.7194 20.8646 43.7204C20.8729 43.722 20.8812 43.7239 20.8895 43.7258C20.8943 43.7269 20.8989 43.7279 20.9037 43.729C20.9163 43.732 20.9289 43.7349 20.9415 43.7381C20.9541 43.7413 20.9672 43.7448 20.9798 43.7483C20.9839 43.7494 20.9881 43.7507 20.9922 43.7521C21.0007 43.7545 21.0091 43.7569 21.0174 43.7596C21.0227 43.7612 21.0281 43.763 21.0334 43.7647C21.0404 43.7668 21.0474 43.7692 21.0541 43.7714C21.0597 43.7732 21.0653 43.7751 21.071 43.7773C21.0777 43.7797 21.0846 43.7821 21.0913 43.7845C21.097 43.7866 21.1026 43.7888 21.1082 43.7907C21.1146 43.7931 21.1211 43.7955 21.1275 43.7979C21.1331 43.8 21.1388 43.8022 21.1444 43.8046C21.1508 43.807 21.157 43.8097 21.1634 43.8124C21.1693 43.8148 21.1752 43.8172 21.1808 43.8196C21.187 43.8223 21.1932 43.825 21.1993 43.8276C21.205 43.83 21.2106 43.8325 21.216 43.8351C21.2221 43.8381 21.2283 43.8408 21.2344 43.8437C21.2401 43.8464 21.2454 43.8488 21.2511 43.8515C21.2578 43.8547 21.2642 43.8579 21.2709 43.8614C21.2757 43.8638 21.2808 43.8662 21.2856 43.8686C21.2929 43.8724 21.2998 43.8761 21.3071 43.8799C21.3162 43.8847 21.3253 43.8898 21.3344 43.8949C21.3403 43.8981 21.3462 43.9016 21.3521 43.9048C21.3577 43.908 21.3634 43.9115 21.369 43.9147C21.3743 43.918 21.3797 43.9209 21.3851 43.9244C21.3907 43.9279 21.3963 43.9314 21.4019 43.9348C21.407 43.9381 21.4121 43.9413 21.4172 43.9445C21.4229 43.9482 21.4288 43.952 21.4344 43.9557C21.4395 43.959 21.4446 43.9622 21.4494 43.9657C21.455 43.9694 21.4606 43.9732 21.4663 43.9769C21.4711 43.9801 21.4759 43.9836 21.4805 43.9868C21.4864 43.9909 21.492 43.9949 21.4976 43.9992C21.5022 44.0024 21.5067 44.0059 21.5113 44.0091C21.5172 44.0134 21.5228 44.0177 21.5287 44.0219C21.533 44.0252 21.537 44.0284 21.541 44.0313C21.5469 44.0359 21.5528 44.0404 21.5587 44.045C21.5628 44.0482 21.567 44.0517 21.5711 44.0549C21.5767 44.0595 21.5826 44.0643 21.5882 44.0688C21.5922 44.0721 21.596 44.0755 21.5997 44.0788C21.6054 44.0836 21.6113 44.0884 21.6169 44.0932C21.6201 44.0962 21.6233 44.0991 21.6268 44.1021C21.6399 44.1136 21.6528 44.1254 21.6654 44.1375C21.6675 44.1393 21.6694 44.1412 21.6716 44.1431C21.6777 44.149 21.6839 44.1551 21.6901 44.161C21.6927 44.1637 21.6957 44.1664 21.6984 44.1691C21.7045 44.1752 21.7104 44.1814 21.7166 44.1876C21.7193 44.1903 21.7222 44.1932 21.7249 44.1959C21.7308 44.202 21.7364 44.2079 21.742 44.2141C21.745 44.2173 21.7479 44.2203 21.7509 44.2235C21.7565 44.2296 21.7619 44.2355 21.7675 44.2417C21.7702 44.2449 21.7731 44.2479 21.7758 44.2511C21.7814 44.2573 21.7868 44.2637 21.7924 44.2701C21.7951 44.2733 21.7978 44.2765 21.8005 44.2795C21.8061 44.2862 21.8115 44.2926 21.8168 44.2993C21.819 44.302 21.8214 44.305 21.8235 44.3076C21.8292 44.3146 21.8348 44.3218 21.8404 44.3288C21.8423 44.3312 21.8442 44.3336 21.846 44.336C21.8519 44.3438 21.8581 44.3516 21.8637 44.3596C21.864 44.3599 21.8643 44.3604 21.8645 44.3607C21.8927 44.3988 21.9195 44.4382 21.9444 44.4789C21.9449 44.4797 21.9452 44.4802 21.9457 44.481C21.9511 44.4899 21.9565 44.4987 21.9615 44.5076C21.9626 44.5094 21.964 44.5116 21.965 44.5135C21.9696 44.5215 21.9744 44.5295 21.979 44.5379C21.9808 44.5411 21.9825 44.544 21.9841 44.5472C21.9886 44.5553 21.9929 44.5633 21.9972 44.5714C21.9985 44.574 22.0001 44.5767 22.0015 44.5797C22.0058 44.588 22.0101 44.5965 22.0143 44.6049C22.0157 44.6078 22.0173 44.6108 22.0186 44.6134C22.0229 44.622 22.0272 44.6306 22.0312 44.6394C22.0323 44.6418 22.0334 44.644 22.0344 44.6464C22.0387 44.6555 22.0428 44.6646 22.047 44.6737C22.0478 44.6759 22.0489 44.678 22.0497 44.6799C22.054 44.6895 22.0583 44.6992 22.0623 44.7091C22.0623 44.7094 22.0626 44.7094 22.0626 44.7096C22.0856 44.7649 22.1057 44.8217 22.1229 44.8798C22.1234 44.8817 22.124 44.8836 22.1245 44.8855C22.1272 44.8951 22.1299 44.9045 22.1325 44.9141C22.1333 44.9171 22.1341 44.92 22.1349 44.923C22.1374 44.9324 22.1398 44.9417 22.1422 44.9511C22.143 44.9543 22.1438 44.9573 22.1443 44.9605C22.1465 44.9699 22.1486 44.9793 22.1508 44.9886C22.1516 44.9919 22.1521 44.9948 22.1529 44.998C22.155 45.0074 22.1569 45.017 22.1588 45.0264C22.1593 45.0294 22.1599 45.0323 22.1604 45.0353C22.1623 45.0455 22.1642 45.0556 22.166 45.0661C22.1663 45.0674 22.1666 45.069 22.1668 45.0704C22.1687 45.0816 22.1706 45.0929 22.1722 45.1044C22.184 45.1846 22.1904 45.2668 22.1904 45.3504C22.1904 46.2697 21.4451 47.015 20.5258 47.015C19.6066 47.015 18.8612 46.2697 18.8612 45.3504C18.861 45.2668 18.8671 45.1848 18.8792 45.1044Z" fill="#382B73"/>
<path d="M34.2502 36.3165H15.1941C14.612 36.3165 14.1403 35.8448 14.1403 35.2627V19.5433C14.1403 18.9612 14.612 18.4895 15.1941 18.4895H34.2505C34.8326 18.4895 35.3043 18.9612 35.3043 19.5433V35.2624C35.3043 35.8445 34.8323 36.3165 34.2502 36.3165Z" fill="#A72973"/>
<path d="M34.2502 35.5125H15.1941C14.612 35.5125 14.1403 35.0409 14.1403 34.4587V18.7394C14.1403 18.1572 14.612 17.6855 15.1941 17.6855H34.2505C34.8326 17.6855 35.3043 18.1572 35.3043 18.7394V34.4585C35.3043 35.0406 34.8323 35.5125 34.2502 35.5125Z" fill="#EF5A9D"/>
<path d="M34.2502 17.6855H15.1941C14.612 17.6855 14.1403 18.1572 14.1403 18.7394V20.803H35.3043V18.7394C35.3043 18.1575 34.8323 17.6855 34.2502 17.6855Z" fill="#A72973"/>
<path d="M16.4674 19.2442C16.4674 19.5108 16.2511 19.7271 15.9845 19.7271C15.7178 19.7271 15.5015 19.5108 15.5015 19.2442C15.5015 18.9775 15.7178 18.7612 15.9845 18.7612C16.2511 18.7612 16.4674 18.9775 16.4674 19.2442Z" fill="white"/>
<path d="M18.3116 19.2442C18.3116 19.5108 18.0953 19.7271 17.8286 19.7271C17.5619 19.7271 17.3457 19.5108 17.3457 19.2442C17.3457 18.9775 17.5619 18.7612 17.8286 18.7612C18.0953 18.7612 18.3116 18.9775 18.3116 19.2442Z" fill="white"/>
<path d="M20.1557 19.2442C20.1557 19.5108 19.9394 19.7271 19.6728 19.7271C19.4061 19.7271 19.1898 19.5108 19.1898 19.2442C19.1898 18.9775 19.4061 18.7612 19.6728 18.7612C19.9394 18.7612 20.1557 18.9775 20.1557 19.2442Z" fill="white"/>
<path d="M20.1246 24.0548H16.5116C16.0464 24.0548 15.6693 23.6777 15.6693 23.2125C15.6693 22.7472 16.0464 22.3701 16.5116 22.3701H20.1246C20.5899 22.3701 20.967 22.7472 20.967 23.2125C20.967 23.6777 20.5899 24.0548 20.1246 24.0548Z" fill="#FEDE3A"/>
<path d="M30.3984 24.0548H23.1895C22.7243 24.0548 22.3472 23.6777 22.3472 23.2125C22.3472 22.7472 22.7243 22.3701 23.1895 22.3701H30.3984C30.8636 22.3701 31.2407 22.7472 31.2407 23.2125C31.2407 23.6777 30.8634 24.0548 30.3984 24.0548Z" fill="white"/>
<path d="M22.8336 27.3075H16.5116C16.0464 27.3075 15.6693 26.9304 15.6693 26.4651C15.6693 25.9999 16.0464 25.6228 16.5116 25.6228H22.8336C23.2989 25.6228 23.676 25.9999 23.676 26.4651C23.676 26.9301 23.2989 27.3075 22.8336 27.3075Z" fill="#A72973"/>
<path d="M28.6338 27.3075H25.8026C25.3374 27.3075 24.9603 26.9304 24.9603 26.4651C24.9603 25.9999 25.3374 25.6228 25.8026 25.6228H28.6338C29.0991 25.6228 29.4762 25.9999 29.4762 26.4651C29.4762 26.9301 29.0991 27.3075 28.6338 27.3075Z" fill="#A72973"/>
<path d="M17.3106 30.5599H16.5116C16.0464 30.5599 15.6693 30.1828 15.6693 29.7176C15.6693 29.2523 16.0464 28.8752 16.5116 28.8752H17.3106C17.7758 28.8752 18.1529 29.2523 18.1529 29.7176C18.1529 30.1828 17.7758 30.5599 17.3106 30.5599Z" fill="#A72973"/>
<path d="M25.5295 30.5599H20.0322C19.5669 30.5599 19.1898 30.1828 19.1898 29.7176C19.1898 29.2523 19.5669 28.8752 20.0322 28.8752H25.5295C25.9948 28.8752 26.3719 29.2523 26.3719 29.7176C26.3719 30.1828 25.9948 30.5599 25.5295 30.5599Z" fill="#A72973"/>
<path d="M22.8336 33.8126H16.5116C16.0464 33.8126 15.6693 33.4355 15.6693 32.9703C15.6693 32.505 16.0464 32.1279 16.5116 32.1279H22.8336C23.2989 32.1279 23.676 32.505 23.676 32.9703C23.676 33.4355 23.2989 33.8126 22.8336 33.8126Z" fill="#FEDE3A"/>
<path d="M48.8059 47.118H29.7495C29.1674 47.118 28.6957 46.6463 28.6957 46.0642V30.3451C28.6957 29.763 29.1674 29.2913 29.7495 29.2913H48.8059C49.388 29.2913 49.8597 29.763 49.8597 30.3451V46.0642C49.8597 46.646 49.388 47.118 48.8059 47.118Z" fill="#136DA0"/>
<path d="M48.8059 46.314H29.7495C29.1674 46.314 28.6957 45.8423 28.6957 45.2602V29.5411C28.6957 28.959 29.1674 28.4873 29.7495 28.4873H48.8059C49.388 28.4873 49.8597 28.959 49.8597 29.5411V45.2602C49.8597 45.8421 49.388 46.314 48.8059 46.314Z" fill="#1CAEE4"/>
<path d="M35.6328 43.0251C35.4517 43.0251 35.2708 42.9559 35.1325 42.8179L32.1147 39.8004C31.982 39.6677 31.9073 39.4876 31.9073 39.3C31.9073 39.1124 31.9818 38.9323 32.1144 38.7997L35.1319 35.7822C35.4085 35.5059 35.8561 35.5059 36.1327 35.7822C36.409 36.0585 36.409 36.5066 36.1327 36.7829L33.6153 39.3003L36.1324 41.8174C36.4087 42.0937 36.4087 42.5419 36.1327 42.8182C35.9949 42.9559 35.814 43.0251 35.6328 43.0251Z" fill="#009ADD"/>
<path d="M42.9229 43.0251C42.7417 43.0251 42.5608 42.9559 42.4225 42.8179C42.1462 42.5416 42.1462 42.0935 42.4228 41.8172L44.9399 39.3001L42.4225 36.7827C42.1462 36.5064 42.1462 36.0583 42.4225 35.7819C42.6991 35.5056 43.1467 35.5056 43.4233 35.7819L46.441 38.7994C46.5737 38.9321 46.6482 39.1122 46.6482 39.2998C46.6482 39.4874 46.5737 39.6675 46.4407 39.8002L43.423 42.8177C43.285 42.9559 43.1038 43.0251 42.9229 43.0251Z" fill="#009ADD"/>
<path d="M37.7442 43.0252C37.6362 43.0252 37.5271 43.0006 37.4242 42.9483C37.0758 42.7712 36.937 42.3453 37.1138 41.9969L40.1798 35.9617C40.357 35.6132 40.7829 35.4744 41.1313 35.6513C41.4797 35.8285 41.6185 36.2543 41.4416 36.6027L38.3756 42.638C38.251 42.8837 38.0023 43.0252 37.7442 43.0252Z" fill="#009ADD"/>
<path d="M35.6328 42.2927C35.4517 42.2927 35.2708 42.2235 35.1325 42.0855L32.1147 39.068C31.982 38.9353 31.9073 38.7552 31.9073 38.5676C31.9073 38.38 31.9818 38.1999 32.1144 38.0673L35.1319 35.0495C35.4085 34.7732 35.8561 34.7732 36.1327 35.0495C36.409 35.3258 36.409 35.7739 36.1327 36.0503L33.6153 38.5676L36.1324 41.0848C36.4087 41.3611 36.4087 41.8092 36.1327 42.0855C35.9949 42.2235 35.814 42.2927 35.6328 42.2927Z" fill="white"/>
<path d="M33.6158 38.5676L36.1332 36.0502C36.4095 35.7739 36.4095 35.3258 36.1332 35.0495C35.874 34.7906 35.4645 34.7743 35.1866 35.0007C35.2054 35.016 35.2233 35.0321 35.2407 35.0495C35.517 35.3258 35.517 35.7739 35.2407 36.0502L32.7234 38.5676L35.2405 41.0847C35.5168 41.3611 35.5168 41.8092 35.2407 42.0855C35.2233 42.1029 35.2054 42.119 35.1866 42.1343C35.3163 42.2399 35.4744 42.2927 35.6328 42.2927C35.814 42.2927 35.9949 42.2235 36.1332 42.0855C36.4095 41.8092 36.4095 41.3611 36.1329 41.0847L33.6158 38.5676Z" fill="#E6E7E8"/>
<path d="M42.9229 42.2927C42.7417 42.2927 42.5608 42.2235 42.4225 42.0855C42.1462 41.8092 42.1462 41.3611 42.4228 41.0848L44.9399 38.5676L42.4225 36.0503C42.1462 35.7739 42.1462 35.3258 42.4225 35.0495C42.6991 34.7732 43.1467 34.7732 43.4233 35.0495L46.441 38.0673C46.5737 38.1999 46.6482 38.38 46.6482 38.5676C46.6482 38.7552 46.5737 38.9353 46.4407 39.068L43.423 42.0855C43.285 42.2235 43.1038 42.2927 42.9229 42.2927Z" fill="white"/>
<path d="M43.315 42.0855C43.0387 41.8092 43.0387 41.3611 43.3152 41.0847L45.8324 38.5676L43.315 36.0502C43.0387 35.7739 43.0387 35.3258 43.315 35.0495C43.3324 35.0321 43.3504 35.0157 43.3691 35.0007C43.0909 34.7743 42.6814 34.7906 42.4222 35.0495C42.1459 35.3258 42.1459 35.7739 42.4222 36.0502L44.9396 38.5676L42.4225 41.0847C42.1462 41.3611 42.1462 41.8092 42.4222 42.0855C42.5605 42.2238 42.7414 42.2927 42.9226 42.2927C43.081 42.2927 43.2394 42.2399 43.3688 42.1343C43.3504 42.119 43.3324 42.1026 43.315 42.0855Z" fill="#E6E7E8"/>
<path d="M37.7442 42.2928C37.6362 42.2928 37.5271 42.2682 37.4242 42.2159C37.0758 42.0388 36.937 41.6129 37.1138 41.2645L40.1798 35.2292C40.357 34.8808 40.7829 34.742 41.1313 34.9189C41.4797 35.096 41.6185 35.5219 41.4416 35.8703L38.3756 41.9056C38.251 42.1513 38.0023 42.2928 37.7442 42.2928Z" fill="white"/>
<path d="M41.1315 34.9191C41.0819 34.8939 41.031 34.8751 40.9793 34.8625C41.0184 35.0212 41.0029 35.1943 40.923 35.3514L37.857 41.3866C37.7324 41.6324 37.4834 41.7739 37.2256 41.7739C37.1698 41.7739 37.1136 41.7672 37.0581 41.7535C37.1055 41.9468 37.2336 42.1188 37.4247 42.2161C37.5274 42.2684 37.6367 42.293 37.7447 42.293C38.0025 42.293 38.2515 42.1515 38.3761 41.9058L41.4424 35.8705C41.6188 35.5221 41.4799 35.096 41.1315 34.9191Z" fill="#E6E7E8"/>
<path d="M48.8059 28.4871H29.7495C29.1674 28.4871 28.6957 28.959 28.6957 29.5409V31.6045H49.8597V29.5409C49.8597 28.959 49.388 28.4871 48.8059 28.4871Z" fill="#136DA0"/>
<path d="M31.0231 30.0459C31.0231 30.3126 30.8068 30.5289 30.5402 30.5289C30.2735 30.5289 30.0572 30.3126 30.0572 30.0459C30.0572 29.7793 30.2735 29.563 30.5402 29.563C30.8068 29.5627 31.0231 29.779 31.0231 30.0459Z" fill="white"/>
<path d="M32.8673 30.0459C32.8673 30.3126 32.651 30.5289 32.3843 30.5289C32.1176 30.5289 31.9014 30.3126 31.9014 30.0459C31.9014 29.7793 32.1176 29.563 32.3843 29.563C32.651 29.563 32.8673 29.779 32.8673 30.0459Z" fill="white"/>
<path d="M34.7114 30.0459C34.7114 30.3126 34.4951 30.5289 34.2285 30.5289C33.9618 30.5289 33.7455 30.3126 33.7455 30.0459C33.7455 29.7793 33.9618 29.563 34.2285 29.563C34.4951 29.563 34.7114 29.779 34.7114 30.0459Z" fill="white"/>
<path d="M47.3863 20.902C47.3981 20.7782 47.4042 20.6525 47.4042 20.5255C47.4042 20.3984 47.3981 20.2727 47.3863 20.1489L48.4181 18.8909C48.591 18.68 48.6151 18.3841 48.4789 18.148L48.0356 17.3801C47.8992 17.144 47.631 17.017 47.3619 17.0615L45.7565 17.326C45.5526 17.1802 45.3341 17.0537 45.1039 16.9487L44.5307 15.4269C44.4344 15.1718 44.1903 15.0029 43.9177 15.0029H43.0312C42.7586 15.0029 42.5144 15.1718 42.4182 15.4269L41.845 16.9487C41.6147 17.0537 41.3963 17.1805 41.1924 17.326L39.587 17.0615C39.3179 17.0173 39.0497 17.144 38.9132 17.3801L38.47 18.148C38.3335 18.3841 38.3579 18.68 38.5308 18.8909L39.5626 20.1489C39.5508 20.2727 39.5447 20.3984 39.5447 20.5255C39.5447 20.6525 39.5508 20.7779 39.5626 20.902L38.5308 22.16C38.3579 22.371 38.3338 22.6668 38.47 22.903L38.9132 23.6708C39.0497 23.9069 39.3179 24.034 39.587 23.9895L41.1924 23.7249C41.3963 23.8707 41.6147 23.9972 41.845 24.1023L42.4182 25.624C42.5144 25.8792 42.7586 26.048 43.0312 26.048H43.9177C44.1903 26.048 44.4344 25.8792 44.5307 25.624L45.1039 24.1023C45.3341 23.9972 45.5526 23.8705 45.7565 23.7249L47.3619 23.9895C47.631 24.034 47.8992 23.9069 48.0356 23.6708L48.4789 22.903C48.6153 22.6668 48.591 22.371 48.4181 22.16L47.3863 20.902ZM45.139 20.5255C45.139 21.4447 44.3937 22.1901 43.4744 22.1901C42.5552 22.1901 41.8099 21.4447 41.8099 20.5255C41.8099 19.6062 42.5552 18.8609 43.4744 18.8609C44.3937 18.8609 45.139 19.6062 45.139 20.5255Z" fill="white"/>
<path d="M39.546 20.1285C39.5452 20.0972 39.5449 20.0658 39.5449 20.0342C39.5449 19.9072 39.5511 19.7815 39.5629 19.6577L38.531 18.3996C38.4884 18.3476 38.4547 18.2903 38.4303 18.23C38.3413 18.4497 38.3775 18.7038 38.531 18.8909L39.546 20.1285Z" fill="#BCBEC0"/>
<path d="M43.4744 18.3696C42.5552 18.3696 41.8098 19.115 41.8098 20.0342C41.8098 20.1176 41.816 20.1996 41.8278 20.2797C41.9465 19.4768 42.6385 18.8606 43.4744 18.8606C44.3103 18.8606 45.0023 19.4768 45.1211 20.2797C45.1329 20.1996 45.1393 20.1176 45.1393 20.0342C45.139 19.115 44.3937 18.3696 43.4744 18.3696Z" fill="#BCBEC0"/>
<path d="M47.3863 20.4108L47.4032 20.4312C47.4018 20.3805 47.3997 20.3301 47.3967 20.28C47.3938 20.3237 47.3903 20.3674 47.3863 20.4108Z" fill="#BCBEC0"/>
<path d="M39.5626 20.4108C39.5586 20.3674 39.5551 20.3237 39.5524 20.28C39.5492 20.3301 39.5471 20.3805 39.546 20.4312L39.5626 20.4108Z" fill="#BCBEC0"/>
<path d="M48.4181 18.3996L47.3863 19.6577C47.3981 19.7815 47.4042 19.9072 47.4042 20.0342C47.4042 20.0658 47.4037 20.0972 47.4032 20.1285L48.4184 18.8909C48.5717 18.7038 48.6081 18.4497 48.5191 18.23C48.4942 18.2903 48.4607 18.3476 48.4181 18.3996Z" fill="#BCBEC0"/>
<path d="M48.4791 22.4116L48.0358 23.1794C47.8994 23.4156 47.6311 23.5426 47.362 23.4981L45.7567 23.2336C45.5527 23.3794 45.3343 23.5059 45.1041 23.6109L44.5308 25.1327C44.4346 25.3878 44.1904 25.5567 43.9179 25.5567H43.0313C42.7588 25.5567 42.5146 25.3878 42.4184 25.1327L41.8451 23.6109C41.6149 23.5059 41.3965 23.3791 41.1925 23.2336L39.5872 23.4981C39.3181 23.5423 39.0498 23.4156 38.9134 23.1794L38.4701 22.4116C38.4548 22.3851 38.4414 22.3575 38.4302 22.3296C38.3559 22.5134 38.3675 22.7249 38.4701 22.9029L38.9134 23.6707C39.0498 23.9068 39.3181 24.0338 39.5872 23.9894L41.1925 23.7248C41.3965 23.8706 41.6149 23.9971 41.8451 24.1022L42.4184 25.6239C42.5146 25.8791 42.7588 26.0479 43.0313 26.0479H43.9179C44.1904 26.0479 44.4346 25.8791 44.5308 25.6239L45.1041 24.1022C45.3343 23.9971 45.5527 23.8704 45.7567 23.7248L47.362 23.9894C47.6311 24.0338 47.8994 23.9068 48.0358 23.6707L48.4791 22.9029C48.5817 22.7252 48.5933 22.5134 48.519 22.3296C48.5075 22.3575 48.4944 22.3851 48.4791 22.4116Z" fill="#BCBEC0"/>
<path d="M43.4744 16.5959C41.3041 16.5959 39.5449 18.3554 39.5449 20.5257C39.5449 22.696 41.3044 24.4552 43.4744 24.4552C45.6448 24.4552 47.4042 22.6958 47.4042 20.5257C47.404 18.3551 45.6448 16.5959 43.4744 16.5959ZM43.4744 22.1901C42.5552 22.1901 41.8099 21.4447 41.8099 20.5255C41.8099 19.6062 42.5552 18.8609 43.4744 18.8609C44.3937 18.8609 45.139 19.6062 45.139 20.5255C45.139 21.445 44.3937 22.1901 43.4744 22.1901Z" fill="#E6E7E8"/>
<path d="M43.4744 17.9878C42.0728 17.9878 40.9367 19.1241 40.9367 20.5258C40.9367 21.9275 42.073 23.0636 43.4744 23.0636C44.8761 23.0636 46.0122 21.9272 46.0122 20.5258C46.0122 19.1239 44.8761 17.9878 43.4744 17.9878ZM43.4744 22.1901C42.5552 22.1901 41.8098 21.4448 41.8098 20.5255C41.8098 19.6063 42.5552 18.861 43.4744 18.861C44.3937 18.861 45.139 19.6063 45.139 20.5255C45.139 21.4451 44.3937 22.1901 43.4744 22.1901Z" fill="#BCBEC0"/>
<path d="M24.4374 43.8508C24.4492 43.7269 24.4553 43.6012 24.4553 43.4742C24.4553 43.3472 24.4492 43.2217 24.4374 43.0977L25.4692 41.8396C25.6421 41.6287 25.6662 41.3328 25.53 41.0967L25.0868 40.3289C24.9504 40.0928 24.6821 39.9657 24.413 40.0102L22.8076 40.2747C22.6037 40.129 22.3853 40.0025 22.155 39.8974L21.5818 38.3756C21.4856 38.1205 21.2414 37.9517 20.9688 37.9517H20.0823C19.8097 37.9517 19.5656 38.1205 19.4693 38.3756L18.8961 39.8974C18.6659 40.0025 18.4474 40.1292 18.2435 40.2747L16.6381 40.0102C16.369 39.966 16.1008 40.0928 15.9644 40.3289L15.5211 41.0967C15.3847 41.3328 15.409 41.6287 15.5819 41.8396L16.6137 43.0977C16.6019 43.2215 16.5958 43.3472 16.5958 43.4742C16.5958 43.6012 16.6019 43.7269 16.6137 43.8508L15.5819 45.1088C15.409 45.3197 15.3847 45.6156 15.5211 45.8517L15.9644 46.6195C16.1008 46.8556 16.369 46.9827 16.6381 46.9382L18.2435 46.6737C18.4474 46.8195 18.6659 46.946 18.8961 47.051L19.4693 48.5728C19.5656 48.8279 19.8097 48.9968 20.0823 48.9968H20.9688C21.2414 48.9968 21.4856 48.8279 21.5818 48.5728L22.155 47.051C22.3853 46.946 22.6037 46.8192 22.8076 46.6737L24.413 46.9382C24.6821 46.9824 24.9504 46.8556 25.0868 46.6195L25.53 45.8517C25.6665 45.6156 25.6421 45.3197 25.4692 45.1088L24.4374 43.8508ZM22.1902 43.4742C22.1902 44.3935 21.4448 45.1388 20.5256 45.1388C19.6063 45.1388 18.861 44.3935 18.861 43.4742C18.861 42.5549 19.6063 41.8096 20.5256 41.8096C21.4451 41.8096 22.1902 42.5547 22.1902 43.4742Z" fill="white"/>
<path d="M16.5971 43.0773C16.5963 43.0459 16.596 43.0146 16.596 42.9829C16.596 42.8559 16.6022 42.7305 16.614 42.6064L15.5822 41.3484C15.5395 41.2964 15.5058 41.239 15.4814 41.1787C15.3924 41.3985 15.4286 41.6525 15.5822 41.8396L16.5971 43.0773Z" fill="#BCBEC0"/>
<path d="M20.5256 41.3184C19.6063 41.3184 18.861 42.0637 18.861 42.9829C18.861 43.0663 18.8671 43.1483 18.8789 43.2284C18.9977 42.4255 19.6896 41.8093 20.5256 41.8093C21.3615 41.8093 22.0535 42.4255 22.1722 43.2284C22.184 43.1483 22.1902 43.0663 22.1902 42.9829C22.1902 42.0637 21.4451 41.3184 20.5256 41.3184Z" fill="#BCBEC0"/>
<path d="M24.4374 43.3596L24.4543 43.3799C24.4529 43.3293 24.4508 43.2789 24.4478 43.2285C24.4449 43.2725 24.4414 43.3162 24.4374 43.3596Z" fill="#BCBEC0"/>
<path d="M16.6137 43.3595C16.6097 43.3161 16.6062 43.2724 16.6035 43.2288C16.6006 43.2789 16.5982 43.3295 16.5971 43.3802L16.6137 43.3595Z" fill="#BCBEC0"/>
<path d="M25.4692 41.3484L24.4374 42.6064C24.4492 42.7302 24.4553 42.8559 24.4553 42.9829C24.4553 43.0146 24.4548 43.0459 24.4543 43.0773L25.4695 41.8396C25.6228 41.6525 25.6592 41.3985 25.5703 41.1787C25.5456 41.239 25.5118 41.2964 25.4692 41.3484Z" fill="#BCBEC0"/>
<path d="M25.5302 45.3603L25.0869 46.1282C24.9505 46.3643 24.6822 46.4913 24.4131 46.4468L22.8078 46.1823C22.6038 46.3281 22.3854 46.4546 22.1552 46.5597L21.5819 48.0814C21.4857 48.3365 21.2416 48.5054 20.969 48.5054H20.0824C19.8099 48.5054 19.5657 48.3365 19.4695 48.0814L18.8962 46.5597C18.666 46.4546 18.4476 46.3278 18.2436 46.1823L16.6383 46.4468C16.3692 46.4911 16.1009 46.3643 15.9645 46.1282L15.5212 45.3603C15.5059 45.3338 15.4925 45.3062 15.4813 45.2783C15.407 45.4619 15.4186 45.6736 15.5212 45.8516L15.9645 46.6194C16.1009 46.8555 16.3692 46.9826 16.6383 46.9381L18.2436 46.6736C18.4476 46.8194 18.666 46.9459 18.8962 47.0509L19.4695 48.5727C19.5657 48.8278 19.8099 48.9966 20.0824 48.9966H20.969C21.2416 48.9966 21.4857 48.8278 21.5819 48.5727L22.1552 47.0509C22.3854 46.9459 22.6038 46.8191 22.8078 46.6736L24.4131 46.9381C24.6822 46.9823 24.9505 46.8555 25.0869 46.6194L25.5302 45.8516C25.6328 45.6739 25.6444 45.4622 25.5701 45.2783C25.5586 45.3062 25.5455 45.3335 25.5302 45.3603Z" fill="#BCBEC0"/>
<path d="M20.5256 39.5444C18.3552 39.5444 16.5958 41.3039 16.5958 43.4739C16.5958 45.6443 18.3552 47.4037 20.5256 47.4037C22.6959 47.4037 24.4551 45.6443 24.4551 43.4739C24.4553 41.3039 22.6959 39.5444 20.5256 39.5444ZM20.5256 45.1388C19.6063 45.1388 18.861 44.3935 18.861 43.4742C18.861 42.555 19.6063 41.8096 20.5256 41.8096C21.4448 41.8096 22.1902 42.555 22.1902 43.4742C22.1902 44.3935 21.4451 45.1388 20.5256 45.1388Z" fill="#E6E7E8"/>
<path d="M20.5256 40.9363C19.1239 40.9363 17.9875 42.0726 17.9875 43.474C17.9875 44.8757 19.1239 46.0118 20.5256 46.0118C21.9272 46.0118 23.0633 44.8754 23.0633 43.474C23.0636 42.0726 21.9272 40.9363 20.5256 40.9363ZM20.5256 45.1389C19.6063 45.1389 18.861 44.3936 18.861 43.4743C18.861 42.555 19.6063 41.8097 20.5256 41.8097C21.4448 41.8097 22.1902 42.555 22.1902 43.4743C22.1902 44.3936 21.4451 45.1389 20.5256 45.1389Z" fill="#BCBEC0"/>
</svg>
