<svg width="150" height="150" viewBox="0 0 220 222" fill="none" xmlns="http://www.w3.org/2000/svg">
<rect width="220" height="222" rx="32" fill="url(#paint0_linear_22_4211)"/>
<mask id="path-2-outside-1_22_4211" maskUnits="userSpaceOnUse" x="15" y="20" width="97" height="34" fill="black">
<rect fill="white" x="15" y="20" width="97" height="34"/>
<path d="M41.7756 22.9091V52H37.0881L23.3807 32.1847H23.1392V52H17.8693V22.9091H22.5852L36.2784 42.7386H36.5341V22.9091H41.7756ZM47.5178 52V22.9091H66.4382V27.3267H52.7876V35.2244H65.4581V39.642H52.7876V47.5824H66.5518V52H47.5178ZM77.9368 52L69.7266 22.9091H75.3942L80.6357 44.2869H80.9055L86.5021 22.9091H91.6584L97.2692 44.3011H97.5249L102.766 22.9091H108.434L100.224 52H95.0249L89.201 31.5881H88.9737L83.1357 52H77.9368Z"/>
</mask>
<path d="M41.7756 22.9091H43.7756V20.9091H41.7756V22.9091ZM41.7756 52V54H43.7756V52H41.7756ZM37.0881 52L35.4433 53.1378L36.0397 54H37.0881V52ZM23.3807 32.1847L25.0255 31.0469L24.4291 30.1847H23.3807V32.1847ZM23.1392 32.1847V30.1847H21.1392V32.1847H23.1392ZM23.1392 52V54H25.1392V52H23.1392ZM17.8693 52H15.8693V54H17.8693V52ZM17.8693 22.9091V20.9091H15.8693V22.9091H17.8693ZM22.5852 22.9091L24.231 21.7726L23.6347 20.9091H22.5852V22.9091ZM36.2784 42.7386L34.6327 43.8751L35.229 44.7386H36.2784V42.7386ZM36.5341 42.7386V44.7386H38.5341V42.7386H36.5341ZM36.5341 22.9091V20.9091H34.5341V22.9091H36.5341ZM39.7756 22.9091V52H43.7756V22.9091H39.7756ZM41.7756 50H37.0881V54H41.7756V50ZM38.7329 50.8622L25.0255 31.0469L21.7359 33.3225L35.4433 53.1378L38.7329 50.8622ZM23.3807 30.1847H23.1392V34.1847H23.3807V30.1847ZM21.1392 32.1847V52H25.1392V32.1847H21.1392ZM23.1392 50H17.8693V54H23.1392V50ZM19.8693 52V22.9091H15.8693V52H19.8693ZM17.8693 24.9091H22.5852V20.9091H17.8693V24.9091ZM20.9395 24.0455L34.6327 43.8751L37.9242 41.6022L24.231 21.7726L20.9395 24.0455ZM36.2784 44.7386H36.5341V40.7386H36.2784V44.7386ZM38.5341 42.7386V22.9091H34.5341V42.7386H38.5341ZM36.5341 24.9091H41.7756V20.9091H36.5341V24.9091ZM47.5178 52H45.5178V54H47.5178V52ZM47.5178 22.9091V20.9091H45.5178V22.9091H47.5178ZM66.4382 22.9091H68.4382V20.9091H66.4382V22.9091ZM66.4382 27.3267V29.3267H68.4382V27.3267H66.4382ZM52.7876 27.3267V25.3267H50.7876V27.3267H52.7876ZM52.7876 35.2244H50.7876V37.2244H52.7876V35.2244ZM65.4581 35.2244H67.4581V33.2244H65.4581V35.2244ZM65.4581 39.642V41.642H67.4581V39.642H65.4581ZM52.7876 39.642V37.642H50.7876V39.642H52.7876ZM52.7876 47.5824H50.7876V49.5824H52.7876V47.5824ZM66.5518 47.5824H68.5518V45.5824H66.5518V47.5824ZM66.5518 52V54H68.5518V52H66.5518ZM49.5178 52V22.9091H45.5178V52H49.5178ZM47.5178 24.9091H66.4382V20.9091H47.5178V24.9091ZM64.4382 22.9091V27.3267H68.4382V22.9091H64.4382ZM66.4382 25.3267H52.7876V29.3267H66.4382V25.3267ZM50.7876 27.3267V35.2244H54.7876V27.3267H50.7876ZM52.7876 37.2244H65.4581V33.2244H52.7876V37.2244ZM63.4581 35.2244V39.642H67.4581V35.2244H63.4581ZM65.4581 37.642H52.7876V41.642H65.4581V37.642ZM50.7876 39.642V47.5824H54.7876V39.642H50.7876ZM52.7876 49.5824H66.5518V45.5824H52.7876V49.5824ZM64.5518 47.5824V52H68.5518V47.5824H64.5518ZM66.5518 50H47.5178V54H66.5518V50ZM77.9368 52L76.012 52.5432L76.4231 54H77.9368V52ZM69.7266 22.9091V20.9091H67.084L67.8018 23.4523L69.7266 22.9091ZM75.3942 22.9091L77.3366 22.4328L76.963 20.9091H75.3942V22.9091ZM80.6357 44.2869L78.6932 44.7632L79.0668 46.2869H80.6357V44.2869ZM80.9055 44.2869V46.2869H82.4494L82.8403 44.7934L80.9055 44.2869ZM86.5021 22.9091V20.9091H84.9583L84.5673 22.4026L86.5021 22.9091ZM91.6584 22.9091L93.5929 22.4017L93.2015 20.9091H91.6584V22.9091ZM97.2692 44.3011L95.3346 44.8085L95.7261 46.3011H97.2692V44.3011ZM97.5249 44.3011V46.3011H99.094L99.4674 44.7771L97.5249 44.3011ZM102.766 22.9091V20.9091H101.197L100.824 22.4331L102.766 22.9091ZM108.434 22.9091L110.359 23.4523L111.077 20.9091H108.434V22.9091ZM100.224 52V54H101.737L102.149 52.5432L100.224 52ZM95.0249 52L93.1016 52.5487L93.5157 54H95.0249V52ZM89.201 31.5881L91.1242 31.0393L90.7102 29.5881H89.201V31.5881ZM88.9737 31.5881V29.5881H87.4656L87.0508 31.0381L88.9737 31.5881ZM83.1357 52V54H84.6438L85.0585 52.55L83.1357 52ZM79.8616 51.4568L71.6514 22.3659L67.8018 23.4523L76.012 52.5432L79.8616 51.4568ZM69.7266 24.9091H75.3942V20.9091H69.7266V24.9091ZM73.4517 23.3853L78.6932 44.7632L82.5781 43.8107L77.3366 22.4328L73.4517 23.3853ZM80.6357 46.2869H80.9055V42.2869H80.6357V46.2869ZM82.8403 44.7934L88.4369 23.4156L84.5673 22.4026L78.9707 43.7804L82.8403 44.7934ZM86.5021 24.9091H91.6584V20.9091H86.5021V24.9091ZM89.7238 23.4165L95.3346 44.8085L99.2037 43.7937L93.5929 22.4017L89.7238 23.4165ZM97.2692 46.3011H97.5249V42.3011H97.2692V46.3011ZM99.4674 44.7771L104.709 23.3851L100.824 22.4331L95.5823 43.8252L99.4674 44.7771ZM102.766 24.9091H108.434V20.9091H102.766V24.9091ZM106.509 22.3659L98.2989 51.4568L102.149 52.5432L110.359 23.4523L106.509 22.3659ZM100.224 50H95.0249V54H100.224V50ZM96.9481 51.4513L91.1242 31.0393L87.2777 32.1368L93.1016 52.5487L96.9481 51.4513ZM89.201 29.5881H88.9737V33.5881H89.201V29.5881ZM87.0508 31.0381L81.2128 51.45L85.0585 52.55L90.8966 32.138L87.0508 31.0381ZM83.1357 50H77.9368V54H83.1357V50Z" fill="#FFD55C" mask="url(#path-2-outside-1_22_4211)"/>
<mask id="path-4-outside-2_22_4211" maskUnits="userSpaceOnUse" x="15" y="68" width="97" height="34" fill="black">
<rect fill="white" x="15" y="68" width="97" height="34"/>
<path d="M41.7756 70.9091V100H37.0881L23.3807 80.1847H23.1392V100H17.8693V70.9091H22.5852L36.2784 90.7386H36.5341V70.9091H41.7756ZM47.5178 100V70.9091H66.4382V75.3267H52.7876V83.2244H65.4581V87.642H52.7876V95.5824H66.5518V100H47.5178ZM77.9368 100L69.7266 70.9091H75.3942L80.6357 92.2869H80.9055L86.5021 70.9091H91.6584L97.2692 92.3011H97.5249L102.766 70.9091H108.434L100.224 100H95.0249L89.201 79.5881H88.9737L83.1357 100H77.9368Z"/>
</mask>
<path d="M41.7756 70.9091H43.7756V68.9091H41.7756V70.9091ZM41.7756 100V102H43.7756V100H41.7756ZM37.0881 100L35.4433 101.138L36.0397 102H37.0881V100ZM23.3807 80.1847L25.0255 79.0469L24.4291 78.1847H23.3807V80.1847ZM23.1392 80.1847V78.1847H21.1392V80.1847H23.1392ZM23.1392 100V102H25.1392V100H23.1392ZM17.8693 100H15.8693V102H17.8693V100ZM17.8693 70.9091V68.9091H15.8693V70.9091H17.8693ZM22.5852 70.9091L24.231 69.7726L23.6347 68.9091H22.5852V70.9091ZM36.2784 90.7386L34.6327 91.8751L35.229 92.7386H36.2784V90.7386ZM36.5341 90.7386V92.7386H38.5341V90.7386H36.5341ZM36.5341 70.9091V68.9091H34.5341V70.9091H36.5341ZM39.7756 70.9091V100H43.7756V70.9091H39.7756ZM41.7756 98H37.0881V102H41.7756V98ZM38.7329 98.8622L25.0255 79.0469L21.7359 81.3225L35.4433 101.138L38.7329 98.8622ZM23.3807 78.1847H23.1392V82.1847H23.3807V78.1847ZM21.1392 80.1847V100H25.1392V80.1847H21.1392ZM23.1392 98H17.8693V102H23.1392V98ZM19.8693 100V70.9091H15.8693V100H19.8693ZM17.8693 72.9091H22.5852V68.9091H17.8693V72.9091ZM20.9395 72.0455L34.6327 91.8751L37.9242 89.6022L24.231 69.7726L20.9395 72.0455ZM36.2784 92.7386H36.5341V88.7386H36.2784V92.7386ZM38.5341 90.7386V70.9091H34.5341V90.7386H38.5341ZM36.5341 72.9091H41.7756V68.9091H36.5341V72.9091ZM47.5178 100H45.5178V102H47.5178V100ZM47.5178 70.9091V68.9091H45.5178V70.9091H47.5178ZM66.4382 70.9091H68.4382V68.9091H66.4382V70.9091ZM66.4382 75.3267V77.3267H68.4382V75.3267H66.4382ZM52.7876 75.3267V73.3267H50.7876V75.3267H52.7876ZM52.7876 83.2244H50.7876V85.2244H52.7876V83.2244ZM65.4581 83.2244H67.4581V81.2244H65.4581V83.2244ZM65.4581 87.642V89.642H67.4581V87.642H65.4581ZM52.7876 87.642V85.642H50.7876V87.642H52.7876ZM52.7876 95.5824H50.7876V97.5824H52.7876V95.5824ZM66.5518 95.5824H68.5518V93.5824H66.5518V95.5824ZM66.5518 100V102H68.5518V100H66.5518ZM49.5178 100V70.9091H45.5178V100H49.5178ZM47.5178 72.9091H66.4382V68.9091H47.5178V72.9091ZM64.4382 70.9091V75.3267H68.4382V70.9091H64.4382ZM66.4382 73.3267H52.7876V77.3267H66.4382V73.3267ZM50.7876 75.3267V83.2244H54.7876V75.3267H50.7876ZM52.7876 85.2244H65.4581V81.2244H52.7876V85.2244ZM63.4581 83.2244V87.642H67.4581V83.2244H63.4581ZM65.4581 85.642H52.7876V89.642H65.4581V85.642ZM50.7876 87.642V95.5824H54.7876V87.642H50.7876ZM52.7876 97.5824H66.5518V93.5824H52.7876V97.5824ZM64.5518 95.5824V100H68.5518V95.5824H64.5518ZM66.5518 98H47.5178V102H66.5518V98ZM77.9368 100L76.012 100.543L76.4231 102H77.9368V100ZM69.7266 70.9091V68.9091H67.084L67.8018 71.4523L69.7266 70.9091ZM75.3942 70.9091L77.3366 70.4328L76.963 68.9091H75.3942V70.9091ZM80.6357 92.2869L78.6932 92.7632L79.0668 94.2869H80.6357V92.2869ZM80.9055 92.2869V94.2869H82.4494L82.8403 92.7934L80.9055 92.2869ZM86.5021 70.9091V68.9091H84.9583L84.5673 70.4026L86.5021 70.9091ZM91.6584 70.9091L93.5929 70.4017L93.2015 68.9091H91.6584V70.9091ZM97.2692 92.3011L95.3346 92.8085L95.7261 94.3011H97.2692V92.3011ZM97.5249 92.3011V94.3011H99.094L99.4674 92.7771L97.5249 92.3011ZM102.766 70.9091V68.9091H101.197L100.824 70.4331L102.766 70.9091ZM108.434 70.9091L110.359 71.4523L111.077 68.9091H108.434V70.9091ZM100.224 100V102H101.737L102.149 100.543L100.224 100ZM95.0249 100L93.1016 100.549L93.5157 102H95.0249V100ZM89.201 79.5881L91.1242 79.0393L90.7102 77.5881H89.201V79.5881ZM88.9737 79.5881V77.5881H87.4656L87.0508 79.0381L88.9737 79.5881ZM83.1357 100V102H84.6438L85.0585 100.55L83.1357 100ZM79.8616 99.4568L71.6514 70.3659L67.8018 71.4523L76.012 100.543L79.8616 99.4568ZM69.7266 72.9091H75.3942V68.9091H69.7266V72.9091ZM73.4517 71.3853L78.6932 92.7632L82.5781 91.8107L77.3366 70.4328L73.4517 71.3853ZM80.6357 94.2869H80.9055V90.2869H80.6357V94.2869ZM82.8403 92.7934L88.4369 71.4156L84.5673 70.4026L78.9707 91.7804L82.8403 92.7934ZM86.5021 72.9091H91.6584V68.9091H86.5021V72.9091ZM89.7238 71.4165L95.3346 92.8085L99.2037 91.7937L93.5929 70.4017L89.7238 71.4165ZM97.2692 94.3011H97.5249V90.3011H97.2692V94.3011ZM99.4674 92.7771L104.709 71.3851L100.824 70.4331L95.5823 91.8252L99.4674 92.7771ZM102.766 72.9091H108.434V68.9091H102.766V72.9091ZM106.509 70.3659L98.2989 99.4568L102.149 100.543L110.359 71.4523L106.509 70.3659ZM100.224 98H95.0249V102H100.224V98ZM96.9481 99.4513L91.1242 79.0393L87.2777 80.1368L93.1016 100.549L96.9481 99.4513ZM89.201 77.5881H88.9737V81.5881H89.201V77.5881ZM87.0508 79.0381L81.2128 99.45L85.0585 100.55L90.8966 80.138L87.0508 79.0381ZM83.1357 98H77.9368V102H83.1357V98Z" fill="#FFE497" mask="url(#path-4-outside-2_22_4211)"/>
<mask id="path-6-outside-3_22_4211" maskUnits="userSpaceOnUse" x="15" y="116" width="97" height="34" fill="black">
<rect fill="white" x="15" y="116" width="97" height="34"/>
<path d="M41.7756 118.909V148H37.0881L23.3807 128.185H23.1392V148H17.8693V118.909H22.5852L36.2784 138.739H36.5341V118.909H41.7756ZM47.5178 148V118.909H66.4382V123.327H52.7876V131.224H65.4581V135.642H52.7876V143.582H66.5518V148H47.5178ZM77.9368 148L69.7266 118.909H75.3942L80.6357 140.287H80.9055L86.5021 118.909H91.6584L97.2692 140.301H97.5249L102.766 118.909H108.434L100.224 148H95.0249L89.201 127.588H88.9737L83.1357 148H77.9368Z"/>
</mask>
<path d="M41.7756 118.909H43.7756V116.909H41.7756V118.909ZM41.7756 148V150H43.7756V148H41.7756ZM37.0881 148L35.4433 149.138L36.0397 150H37.0881V148ZM23.3807 128.185L25.0255 127.047L24.4291 126.185H23.3807V128.185ZM23.1392 128.185V126.185H21.1392V128.185H23.1392ZM23.1392 148V150H25.1392V148H23.1392ZM17.8693 148H15.8693V150H17.8693V148ZM17.8693 118.909V116.909H15.8693V118.909H17.8693ZM22.5852 118.909L24.231 117.773L23.6347 116.909H22.5852V118.909ZM36.2784 138.739L34.6327 139.875L35.229 140.739H36.2784V138.739ZM36.5341 138.739V140.739H38.5341V138.739H36.5341ZM36.5341 118.909V116.909H34.5341V118.909H36.5341ZM39.7756 118.909V148H43.7756V118.909H39.7756ZM41.7756 146H37.0881V150H41.7756V146ZM38.7329 146.862L25.0255 127.047L21.7359 129.322L35.4433 149.138L38.7329 146.862ZM23.3807 126.185H23.1392V130.185H23.3807V126.185ZM21.1392 128.185V148H25.1392V128.185H21.1392ZM23.1392 146H17.8693V150H23.1392V146ZM19.8693 148V118.909H15.8693V148H19.8693ZM17.8693 120.909H22.5852V116.909H17.8693V120.909ZM20.9395 120.046L34.6327 139.875L37.9242 137.602L24.231 117.773L20.9395 120.046ZM36.2784 140.739H36.5341V136.739H36.2784V140.739ZM38.5341 138.739V118.909H34.5341V138.739H38.5341ZM36.5341 120.909H41.7756V116.909H36.5341V120.909ZM47.5178 148H45.5178V150H47.5178V148ZM47.5178 118.909V116.909H45.5178V118.909H47.5178ZM66.4382 118.909H68.4382V116.909H66.4382V118.909ZM66.4382 123.327V125.327H68.4382V123.327H66.4382ZM52.7876 123.327V121.327H50.7876V123.327H52.7876ZM52.7876 131.224H50.7876V133.224H52.7876V131.224ZM65.4581 131.224H67.4581V129.224H65.4581V131.224ZM65.4581 135.642V137.642H67.4581V135.642H65.4581ZM52.7876 135.642V133.642H50.7876V135.642H52.7876ZM52.7876 143.582H50.7876V145.582H52.7876V143.582ZM66.5518 143.582H68.5518V141.582H66.5518V143.582ZM66.5518 148V150H68.5518V148H66.5518ZM49.5178 148V118.909H45.5178V148H49.5178ZM47.5178 120.909H66.4382V116.909H47.5178V120.909ZM64.4382 118.909V123.327H68.4382V118.909H64.4382ZM66.4382 121.327H52.7876V125.327H66.4382V121.327ZM50.7876 123.327V131.224H54.7876V123.327H50.7876ZM52.7876 133.224H65.4581V129.224H52.7876V133.224ZM63.4581 131.224V135.642H67.4581V131.224H63.4581ZM65.4581 133.642H52.7876V137.642H65.4581V133.642ZM50.7876 135.642V143.582H54.7876V135.642H50.7876ZM52.7876 145.582H66.5518V141.582H52.7876V145.582ZM64.5518 143.582V148H68.5518V143.582H64.5518ZM66.5518 146H47.5178V150H66.5518V146ZM77.9368 148L76.012 148.543L76.4231 150H77.9368V148ZM69.7266 118.909V116.909H67.084L67.8018 119.452L69.7266 118.909ZM75.3942 118.909L77.3366 118.433L76.963 116.909H75.3942V118.909ZM80.6357 140.287L78.6932 140.763L79.0668 142.287H80.6357V140.287ZM80.9055 140.287V142.287H82.4494L82.8403 140.793L80.9055 140.287ZM86.5021 118.909V116.909H84.9583L84.5673 118.403L86.5021 118.909ZM91.6584 118.909L93.5929 118.402L93.2015 116.909H91.6584V118.909ZM97.2692 140.301L95.3346 140.809L95.7261 142.301H97.2692V140.301ZM97.5249 140.301V142.301H99.094L99.4674 140.777L97.5249 140.301ZM102.766 118.909V116.909H101.197L100.824 118.433L102.766 118.909ZM108.434 118.909L110.359 119.452L111.077 116.909H108.434V118.909ZM100.224 148V150H101.737L102.149 148.543L100.224 148ZM95.0249 148L93.1016 148.549L93.5157 150H95.0249V148ZM89.201 127.588L91.1242 127.039L90.7102 125.588H89.201V127.588ZM88.9737 127.588V125.588H87.4656L87.0508 127.038L88.9737 127.588ZM83.1357 148V150H84.6438L85.0585 148.55L83.1357 148ZM79.8616 147.457L71.6514 118.366L67.8018 119.452L76.012 148.543L79.8616 147.457ZM69.7266 120.909H75.3942V116.909H69.7266V120.909ZM73.4517 119.385L78.6932 140.763L82.5781 139.811L77.3366 118.433L73.4517 119.385ZM80.6357 142.287H80.9055V138.287H80.6357V142.287ZM82.8403 140.793L88.4369 119.416L84.5673 118.403L78.9707 139.78L82.8403 140.793ZM86.5021 120.909H91.6584V116.909H86.5021V120.909ZM89.7238 119.416L95.3346 140.809L99.2037 139.794L93.5929 118.402L89.7238 119.416ZM97.2692 142.301H97.5249V138.301H97.2692V142.301ZM99.4674 140.777L104.709 119.385L100.824 118.433L95.5823 139.825L99.4674 140.777ZM102.766 120.909H108.434V116.909H102.766V120.909ZM106.509 118.366L98.2989 147.457L102.149 148.543L110.359 119.452L106.509 118.366ZM100.224 146H95.0249V150H100.224V146ZM96.9481 147.451L91.1242 127.039L87.2777 128.137L93.1016 148.549L96.9481 147.451ZM89.201 125.588H88.9737V129.588H89.201V125.588ZM87.0508 127.038L81.2128 147.45L85.0585 148.55L90.8966 128.138L87.0508 127.038ZM83.1357 146H77.9368V150H83.1357V146Z" fill="#FFEEBE" mask="url(#path-6-outside-3_22_4211)"/>
<mask id="path-8-outside-4_22_4211" maskUnits="userSpaceOnUse" x="15" y="164" width="97" height="34" fill="black">
<rect fill="white" x="15" y="164" width="97" height="34"/>
<path d="M41.7756 166.909V196H37.0881L23.3807 176.185H23.1392V196H17.8693V166.909H22.5852L36.2784 186.739H36.5341V166.909H41.7756ZM47.5178 196V166.909H66.4382V171.327H52.7876V179.224H65.4581V183.642H52.7876V191.582H66.5518V196H47.5178ZM77.9368 196L69.7266 166.909H75.3942L80.6357 188.287H80.9055L86.5021 166.909H91.6584L97.2692 188.301H97.5249L102.766 166.909H108.434L100.224 196H95.0249L89.201 175.588H88.9737L83.1357 196H77.9368Z"/>
</mask>
<path d="M41.7756 166.909H43.7756V164.909H41.7756V166.909ZM41.7756 196V198H43.7756V196H41.7756ZM37.0881 196L35.4433 197.138L36.0397 198H37.0881V196ZM23.3807 176.185L25.0255 175.047L24.4291 174.185H23.3807V176.185ZM23.1392 176.185V174.185H21.1392V176.185H23.1392ZM23.1392 196V198H25.1392V196H23.1392ZM17.8693 196H15.8693V198H17.8693V196ZM17.8693 166.909V164.909H15.8693V166.909H17.8693ZM22.5852 166.909L24.231 165.773L23.6347 164.909H22.5852V166.909ZM36.2784 186.739L34.6327 187.875L35.229 188.739H36.2784V186.739ZM36.5341 186.739V188.739H38.5341V186.739H36.5341ZM36.5341 166.909V164.909H34.5341V166.909H36.5341ZM39.7756 166.909V196H43.7756V166.909H39.7756ZM41.7756 194H37.0881V198H41.7756V194ZM38.7329 194.862L25.0255 175.047L21.7359 177.322L35.4433 197.138L38.7329 194.862ZM23.3807 174.185H23.1392V178.185H23.3807V174.185ZM21.1392 176.185V196H25.1392V176.185H21.1392ZM23.1392 194H17.8693V198H23.1392V194ZM19.8693 196V166.909H15.8693V196H19.8693ZM17.8693 168.909H22.5852V164.909H17.8693V168.909ZM20.9395 168.046L34.6327 187.875L37.9242 185.602L24.231 165.773L20.9395 168.046ZM36.2784 188.739H36.5341V184.739H36.2784V188.739ZM38.5341 186.739V166.909H34.5341V186.739H38.5341ZM36.5341 168.909H41.7756V164.909H36.5341V168.909ZM47.5178 196H45.5178V198H47.5178V196ZM47.5178 166.909V164.909H45.5178V166.909H47.5178ZM66.4382 166.909H68.4382V164.909H66.4382V166.909ZM66.4382 171.327V173.327H68.4382V171.327H66.4382ZM52.7876 171.327V169.327H50.7876V171.327H52.7876ZM52.7876 179.224H50.7876V181.224H52.7876V179.224ZM65.4581 179.224H67.4581V177.224H65.4581V179.224ZM65.4581 183.642V185.642H67.4581V183.642H65.4581ZM52.7876 183.642V181.642H50.7876V183.642H52.7876ZM52.7876 191.582H50.7876V193.582H52.7876V191.582ZM66.5518 191.582H68.5518V189.582H66.5518V191.582ZM66.5518 196V198H68.5518V196H66.5518ZM49.5178 196V166.909H45.5178V196H49.5178ZM47.5178 168.909H66.4382V164.909H47.5178V168.909ZM64.4382 166.909V171.327H68.4382V166.909H64.4382ZM66.4382 169.327H52.7876V173.327H66.4382V169.327ZM50.7876 171.327V179.224H54.7876V171.327H50.7876ZM52.7876 181.224H65.4581V177.224H52.7876V181.224ZM63.4581 179.224V183.642H67.4581V179.224H63.4581ZM65.4581 181.642H52.7876V185.642H65.4581V181.642ZM50.7876 183.642V191.582H54.7876V183.642H50.7876ZM52.7876 193.582H66.5518V189.582H52.7876V193.582ZM64.5518 191.582V196H68.5518V191.582H64.5518ZM66.5518 194H47.5178V198H66.5518V194ZM77.9368 196L76.012 196.543L76.4231 198H77.9368V196ZM69.7266 166.909V164.909H67.084L67.8018 167.452L69.7266 166.909ZM75.3942 166.909L77.3366 166.433L76.963 164.909H75.3942V166.909ZM80.6357 188.287L78.6932 188.763L79.0668 190.287H80.6357V188.287ZM80.9055 188.287V190.287H82.4494L82.8403 188.793L80.9055 188.287ZM86.5021 166.909V164.909H84.9583L84.5673 166.403L86.5021 166.909ZM91.6584 166.909L93.5929 166.402L93.2015 164.909H91.6584V166.909ZM97.2692 188.301L95.3346 188.809L95.7261 190.301H97.2692V188.301ZM97.5249 188.301V190.301H99.094L99.4674 188.777L97.5249 188.301ZM102.766 166.909V164.909H101.197L100.824 166.433L102.766 166.909ZM108.434 166.909L110.359 167.452L111.077 164.909H108.434V166.909ZM100.224 196V198H101.737L102.149 196.543L100.224 196ZM95.0249 196L93.1016 196.549L93.5157 198H95.0249V196ZM89.201 175.588L91.1242 175.039L90.7102 173.588H89.201V175.588ZM88.9737 175.588V173.588H87.4656L87.0508 175.038L88.9737 175.588ZM83.1357 196V198H84.6438L85.0585 196.55L83.1357 196ZM79.8616 195.457L71.6514 166.366L67.8018 167.452L76.012 196.543L79.8616 195.457ZM69.7266 168.909H75.3942V164.909H69.7266V168.909ZM73.4517 167.385L78.6932 188.763L82.5781 187.811L77.3366 166.433L73.4517 167.385ZM80.6357 190.287H80.9055V186.287H80.6357V190.287ZM82.8403 188.793L88.4369 167.416L84.5673 166.403L78.9707 187.78L82.8403 188.793ZM86.5021 168.909H91.6584V164.909H86.5021V168.909ZM89.7238 167.416L95.3346 188.809L99.2037 187.794L93.5929 166.402L89.7238 167.416ZM97.2692 190.301H97.5249V186.301H97.2692V190.301ZM99.4674 188.777L104.709 167.385L100.824 166.433L95.5823 187.825L99.4674 188.777ZM102.766 168.909H108.434V164.909H102.766V168.909ZM106.509 166.366L98.2989 195.457L102.149 196.543L110.359 167.452L106.509 166.366ZM100.224 194H95.0249V198H100.224V194ZM96.9481 195.451L91.1242 175.039L87.2777 176.137L93.1016 196.549L96.9481 195.451ZM89.201 173.588H88.9737V177.588H89.201V173.588ZM87.0508 175.038L81.2128 195.45L85.0585 196.55L90.8966 176.138L87.0508 175.038ZM83.1357 194H77.9368V198H83.1357V194Z" fill="white" mask="url(#path-8-outside-4_22_4211)"/>
<mask id="path-10-outside-5_22_4211" maskUnits="userSpaceOnUse" x="110" y="20" width="97" height="34" fill="black">
<rect fill="white" x="110" y="20" width="97" height="34"/>
<path d="M136.776 22.9091V52H132.088L118.381 32.1847H118.139V52H112.869V22.9091H117.585L131.278 42.7386H131.534V22.9091H136.776ZM142.518 52V22.9091H161.438V27.3267H147.788V35.2244H160.458V39.642H147.788V47.5824H161.552V52H142.518ZM172.937 52L164.727 22.9091H170.394L175.636 44.2869H175.906L181.502 22.9091H186.658L192.269 44.3011H192.525L197.766 22.9091H203.434L195.224 52H190.025L184.201 31.5881H183.974L178.136 52H172.937Z"/>
</mask>
<path d="M136.776 22.9091H138.776V20.9091H136.776V22.9091ZM136.776 52V54H138.776V52H136.776ZM132.088 52L130.443 53.1378L131.04 54H132.088V52ZM118.381 32.1847L120.025 31.0469L119.429 30.1847H118.381V32.1847ZM118.139 32.1847V30.1847H116.139V32.1847H118.139ZM118.139 52V54H120.139V52H118.139ZM112.869 52H110.869V54H112.869V52ZM112.869 22.9091V20.9091H110.869V22.9091H112.869ZM117.585 22.9091L119.231 21.7726L118.635 20.9091H117.585V22.9091ZM131.278 42.7386L129.633 43.8751L130.229 44.7386H131.278V42.7386ZM131.534 42.7386V44.7386H133.534V42.7386H131.534ZM131.534 22.9091V20.9091H129.534V22.9091H131.534ZM134.776 22.9091V52H138.776V22.9091H134.776ZM136.776 50H132.088V54H136.776V50ZM133.733 50.8622L120.025 31.0469L116.736 33.3225L130.443 53.1378L133.733 50.8622ZM118.381 30.1847H118.139V34.1847H118.381V30.1847ZM116.139 32.1847V52H120.139V32.1847H116.139ZM118.139 50H112.869V54H118.139V50ZM114.869 52V22.9091H110.869V52H114.869ZM112.869 24.9091H117.585V20.9091H112.869V24.9091ZM115.939 24.0455L129.633 43.8751L132.924 41.6022L119.231 21.7726L115.939 24.0455ZM131.278 44.7386H131.534V40.7386H131.278V44.7386ZM133.534 42.7386V22.9091H129.534V42.7386H133.534ZM131.534 24.9091H136.776V20.9091H131.534V24.9091ZM142.518 52H140.518V54H142.518V52ZM142.518 22.9091V20.9091H140.518V22.9091H142.518ZM161.438 22.9091H163.438V20.9091H161.438V22.9091ZM161.438 27.3267V29.3267H163.438V27.3267H161.438ZM147.788 27.3267V25.3267H145.788V27.3267H147.788ZM147.788 35.2244H145.788V37.2244H147.788V35.2244ZM160.458 35.2244H162.458V33.2244H160.458V35.2244ZM160.458 39.642V41.642H162.458V39.642H160.458ZM147.788 39.642V37.642H145.788V39.642H147.788ZM147.788 47.5824H145.788V49.5824H147.788V47.5824ZM161.552 47.5824H163.552V45.5824H161.552V47.5824ZM161.552 52V54H163.552V52H161.552ZM144.518 52V22.9091H140.518V52H144.518ZM142.518 24.9091H161.438V20.9091H142.518V24.9091ZM159.438 22.9091V27.3267H163.438V22.9091H159.438ZM161.438 25.3267H147.788V29.3267H161.438V25.3267ZM145.788 27.3267V35.2244H149.788V27.3267H145.788ZM147.788 37.2244H160.458V33.2244H147.788V37.2244ZM158.458 35.2244V39.642H162.458V35.2244H158.458ZM160.458 37.642H147.788V41.642H160.458V37.642ZM145.788 39.642V47.5824H149.788V39.642H145.788ZM147.788 49.5824H161.552V45.5824H147.788V49.5824ZM159.552 47.5824V52H163.552V47.5824H159.552ZM161.552 50H142.518V54H161.552V50ZM172.937 52L171.012 52.5432L171.423 54H172.937V52ZM164.727 22.9091V20.9091H162.084L162.802 23.4523L164.727 22.9091ZM170.394 22.9091L172.337 22.4328L171.963 20.9091H170.394V22.9091ZM175.636 44.2869L173.693 44.7632L174.067 46.2869H175.636V44.2869ZM175.906 44.2869V46.2869H177.449L177.84 44.7934L175.906 44.2869ZM181.502 22.9091V20.9091H179.958L179.567 22.4026L181.502 22.9091ZM186.658 22.9091L188.593 22.4017L188.201 20.9091H186.658V22.9091ZM192.269 44.3011L190.335 44.8085L190.726 46.3011H192.269V44.3011ZM192.525 44.3011V46.3011H194.094L194.467 44.7771L192.525 44.3011ZM197.766 22.9091V20.9091H196.197L195.824 22.4331L197.766 22.9091ZM203.434 22.9091L205.359 23.4523L206.077 20.9091H203.434V22.9091ZM195.224 52V54H196.737L197.149 52.5432L195.224 52ZM190.025 52L188.102 52.5487L188.516 54H190.025V52ZM184.201 31.5881L186.124 31.0393L185.71 29.5881H184.201V31.5881ZM183.974 31.5881V29.5881H182.466L182.051 31.0381L183.974 31.5881ZM178.136 52V54H179.644L180.059 52.55L178.136 52ZM174.862 51.4568L166.651 22.3659L162.802 23.4523L171.012 52.5432L174.862 51.4568ZM164.727 24.9091H170.394V20.9091H164.727V24.9091ZM168.452 23.3853L173.693 44.7632L177.578 43.8107L172.337 22.4328L168.452 23.3853ZM175.636 46.2869H175.906V42.2869H175.636V46.2869ZM177.84 44.7934L183.437 23.4156L179.567 22.4026L173.971 43.7804L177.84 44.7934ZM181.502 24.9091H186.658V20.9091H181.502V24.9091ZM184.724 23.4165L190.335 44.8085L194.204 43.7937L188.593 22.4017L184.724 23.4165ZM192.269 46.3011H192.525V42.3011H192.269V46.3011ZM194.467 44.7771L199.709 23.3851L195.824 22.4331L190.582 43.8252L194.467 44.7771ZM197.766 24.9091H203.434V20.9091H197.766V24.9091ZM201.509 22.3659L193.299 51.4568L197.149 52.5432L205.359 23.4523L201.509 22.3659ZM195.224 50H190.025V54H195.224V50ZM191.948 51.4513L186.124 31.0393L182.278 32.1368L188.102 52.5487L191.948 51.4513ZM184.201 29.5881H183.974V33.5881H184.201V29.5881ZM182.051 31.0381L176.213 51.45L180.059 52.55L185.897 32.138L182.051 31.0381ZM178.136 50H172.937V54H178.136V50Z" fill="#FFD55C" mask="url(#path-10-outside-5_22_4211)"/>
<mask id="path-12-outside-6_22_4211" maskUnits="userSpaceOnUse" x="110" y="68" width="97" height="34" fill="black">
<rect fill="white" x="110" y="68" width="97" height="34"/>
<path d="M136.776 70.9091V100H132.088L118.381 80.1847H118.139V100H112.869V70.9091H117.585L131.278 90.7386H131.534V70.9091H136.776ZM142.518 100V70.9091H161.438V75.3267H147.788V83.2244H160.458V87.642H147.788V95.5824H161.552V100H142.518ZM172.937 100L164.727 70.9091H170.394L175.636 92.2869H175.906L181.502 70.9091H186.658L192.269 92.3011H192.525L197.766 70.9091H203.434L195.224 100H190.025L184.201 79.5881H183.974L178.136 100H172.937Z"/>
</mask>
<path d="M136.776 70.9091H138.776V68.9091H136.776V70.9091ZM136.776 100V102H138.776V100H136.776ZM132.088 100L130.443 101.138L131.04 102H132.088V100ZM118.381 80.1847L120.025 79.0469L119.429 78.1847H118.381V80.1847ZM118.139 80.1847V78.1847H116.139V80.1847H118.139ZM118.139 100V102H120.139V100H118.139ZM112.869 100H110.869V102H112.869V100ZM112.869 70.9091V68.9091H110.869V70.9091H112.869ZM117.585 70.9091L119.231 69.7726L118.635 68.9091H117.585V70.9091ZM131.278 90.7386L129.633 91.8751L130.229 92.7386H131.278V90.7386ZM131.534 90.7386V92.7386H133.534V90.7386H131.534ZM131.534 70.9091V68.9091H129.534V70.9091H131.534ZM134.776 70.9091V100H138.776V70.9091H134.776ZM136.776 98H132.088V102H136.776V98ZM133.733 98.8622L120.025 79.0469L116.736 81.3225L130.443 101.138L133.733 98.8622ZM118.381 78.1847H118.139V82.1847H118.381V78.1847ZM116.139 80.1847V100H120.139V80.1847H116.139ZM118.139 98H112.869V102H118.139V98ZM114.869 100V70.9091H110.869V100H114.869ZM112.869 72.9091H117.585V68.9091H112.869V72.9091ZM115.939 72.0455L129.633 91.8751L132.924 89.6022L119.231 69.7726L115.939 72.0455ZM131.278 92.7386H131.534V88.7386H131.278V92.7386ZM133.534 90.7386V70.9091H129.534V90.7386H133.534ZM131.534 72.9091H136.776V68.9091H131.534V72.9091ZM142.518 100H140.518V102H142.518V100ZM142.518 70.9091V68.9091H140.518V70.9091H142.518ZM161.438 70.9091H163.438V68.9091H161.438V70.9091ZM161.438 75.3267V77.3267H163.438V75.3267H161.438ZM147.788 75.3267V73.3267H145.788V75.3267H147.788ZM147.788 83.2244H145.788V85.2244H147.788V83.2244ZM160.458 83.2244H162.458V81.2244H160.458V83.2244ZM160.458 87.642V89.642H162.458V87.642H160.458ZM147.788 87.642V85.642H145.788V87.642H147.788ZM147.788 95.5824H145.788V97.5824H147.788V95.5824ZM161.552 95.5824H163.552V93.5824H161.552V95.5824ZM161.552 100V102H163.552V100H161.552ZM144.518 100V70.9091H140.518V100H144.518ZM142.518 72.9091H161.438V68.9091H142.518V72.9091ZM159.438 70.9091V75.3267H163.438V70.9091H159.438ZM161.438 73.3267H147.788V77.3267H161.438V73.3267ZM145.788 75.3267V83.2244H149.788V75.3267H145.788ZM147.788 85.2244H160.458V81.2244H147.788V85.2244ZM158.458 83.2244V87.642H162.458V83.2244H158.458ZM160.458 85.642H147.788V89.642H160.458V85.642ZM145.788 87.642V95.5824H149.788V87.642H145.788ZM147.788 97.5824H161.552V93.5824H147.788V97.5824ZM159.552 95.5824V100H163.552V95.5824H159.552ZM161.552 98H142.518V102H161.552V98ZM172.937 100L171.012 100.543L171.423 102H172.937V100ZM164.727 70.9091V68.9091H162.084L162.802 71.4523L164.727 70.9091ZM170.394 70.9091L172.337 70.4328L171.963 68.9091H170.394V70.9091ZM175.636 92.2869L173.693 92.7632L174.067 94.2869H175.636V92.2869ZM175.906 92.2869V94.2869H177.449L177.84 92.7934L175.906 92.2869ZM181.502 70.9091V68.9091H179.958L179.567 70.4026L181.502 70.9091ZM186.658 70.9091L188.593 70.4017L188.201 68.9091H186.658V70.9091ZM192.269 92.3011L190.335 92.8085L190.726 94.3011H192.269V92.3011ZM192.525 92.3011V94.3011H194.094L194.467 92.7771L192.525 92.3011ZM197.766 70.9091V68.9091H196.197L195.824 70.4331L197.766 70.9091ZM203.434 70.9091L205.359 71.4523L206.077 68.9091H203.434V70.9091ZM195.224 100V102H196.737L197.149 100.543L195.224 100ZM190.025 100L188.102 100.549L188.516 102H190.025V100ZM184.201 79.5881L186.124 79.0393L185.71 77.5881H184.201V79.5881ZM183.974 79.5881V77.5881H182.466L182.051 79.0381L183.974 79.5881ZM178.136 100V102H179.644L180.059 100.55L178.136 100ZM174.862 99.4568L166.651 70.3659L162.802 71.4523L171.012 100.543L174.862 99.4568ZM164.727 72.9091H170.394V68.9091H164.727V72.9091ZM168.452 71.3853L173.693 92.7632L177.578 91.8107L172.337 70.4328L168.452 71.3853ZM175.636 94.2869H175.906V90.2869H175.636V94.2869ZM177.84 92.7934L183.437 71.4156L179.567 70.4026L173.971 91.7804L177.84 92.7934ZM181.502 72.9091H186.658V68.9091H181.502V72.9091ZM184.724 71.4165L190.335 92.8085L194.204 91.7937L188.593 70.4017L184.724 71.4165ZM192.269 94.3011H192.525V90.3011H192.269V94.3011ZM194.467 92.7771L199.709 71.3851L195.824 70.4331L190.582 91.8252L194.467 92.7771ZM197.766 72.9091H203.434V68.9091H197.766V72.9091ZM201.509 70.3659L193.299 99.4568L197.149 100.543L205.359 71.4523L201.509 70.3659ZM195.224 98H190.025V102H195.224V98ZM191.948 99.4513L186.124 79.0393L182.278 80.1368L188.102 100.549L191.948 99.4513ZM184.201 77.5881H183.974V81.5881H184.201V77.5881ZM182.051 79.0381L176.213 99.45L180.059 100.55L185.897 80.138L182.051 79.0381ZM178.136 98H172.937V102H178.136V98Z" fill="#FFE497" mask="url(#path-12-outside-6_22_4211)"/>
<mask id="path-14-outside-7_22_4211" maskUnits="userSpaceOnUse" x="110" y="116" width="97" height="34" fill="black">
<rect fill="white" x="110" y="116" width="97" height="34"/>
<path d="M136.776 118.909V148H132.088L118.381 128.185H118.139V148H112.869V118.909H117.585L131.278 138.739H131.534V118.909H136.776ZM142.518 148V118.909H161.438V123.327H147.788V131.224H160.458V135.642H147.788V143.582H161.552V148H142.518ZM172.937 148L164.727 118.909H170.394L175.636 140.287H175.906L181.502 118.909H186.658L192.269 140.301H192.525L197.766 118.909H203.434L195.224 148H190.025L184.201 127.588H183.974L178.136 148H172.937Z"/>
</mask>
<path d="M136.776 118.909H138.776V116.909H136.776V118.909ZM136.776 148V150H138.776V148H136.776ZM132.088 148L130.443 149.138L131.04 150H132.088V148ZM118.381 128.185L120.025 127.047L119.429 126.185H118.381V128.185ZM118.139 128.185V126.185H116.139V128.185H118.139ZM118.139 148V150H120.139V148H118.139ZM112.869 148H110.869V150H112.869V148ZM112.869 118.909V116.909H110.869V118.909H112.869ZM117.585 118.909L119.231 117.773L118.635 116.909H117.585V118.909ZM131.278 138.739L129.633 139.875L130.229 140.739H131.278V138.739ZM131.534 138.739V140.739H133.534V138.739H131.534ZM131.534 118.909V116.909H129.534V118.909H131.534ZM134.776 118.909V148H138.776V118.909H134.776ZM136.776 146H132.088V150H136.776V146ZM133.733 146.862L120.025 127.047L116.736 129.322L130.443 149.138L133.733 146.862ZM118.381 126.185H118.139V130.185H118.381V126.185ZM116.139 128.185V148H120.139V128.185H116.139ZM118.139 146H112.869V150H118.139V146ZM114.869 148V118.909H110.869V148H114.869ZM112.869 120.909H117.585V116.909H112.869V120.909ZM115.939 120.046L129.633 139.875L132.924 137.602L119.231 117.773L115.939 120.046ZM131.278 140.739H131.534V136.739H131.278V140.739ZM133.534 138.739V118.909H129.534V138.739H133.534ZM131.534 120.909H136.776V116.909H131.534V120.909ZM142.518 148H140.518V150H142.518V148ZM142.518 118.909V116.909H140.518V118.909H142.518ZM161.438 118.909H163.438V116.909H161.438V118.909ZM161.438 123.327V125.327H163.438V123.327H161.438ZM147.788 123.327V121.327H145.788V123.327H147.788ZM147.788 131.224H145.788V133.224H147.788V131.224ZM160.458 131.224H162.458V129.224H160.458V131.224ZM160.458 135.642V137.642H162.458V135.642H160.458ZM147.788 135.642V133.642H145.788V135.642H147.788ZM147.788 143.582H145.788V145.582H147.788V143.582ZM161.552 143.582H163.552V141.582H161.552V143.582ZM161.552 148V150H163.552V148H161.552ZM144.518 148V118.909H140.518V148H144.518ZM142.518 120.909H161.438V116.909H142.518V120.909ZM159.438 118.909V123.327H163.438V118.909H159.438ZM161.438 121.327H147.788V125.327H161.438V121.327ZM145.788 123.327V131.224H149.788V123.327H145.788ZM147.788 133.224H160.458V129.224H147.788V133.224ZM158.458 131.224V135.642H162.458V131.224H158.458ZM160.458 133.642H147.788V137.642H160.458V133.642ZM145.788 135.642V143.582H149.788V135.642H145.788ZM147.788 145.582H161.552V141.582H147.788V145.582ZM159.552 143.582V148H163.552V143.582H159.552ZM161.552 146H142.518V150H161.552V146ZM172.937 148L171.012 148.543L171.423 150H172.937V148ZM164.727 118.909V116.909H162.084L162.802 119.452L164.727 118.909ZM170.394 118.909L172.337 118.433L171.963 116.909H170.394V118.909ZM175.636 140.287L173.693 140.763L174.067 142.287H175.636V140.287ZM175.906 140.287V142.287H177.449L177.84 140.793L175.906 140.287ZM181.502 118.909V116.909H179.958L179.567 118.403L181.502 118.909ZM186.658 118.909L188.593 118.402L188.201 116.909H186.658V118.909ZM192.269 140.301L190.335 140.809L190.726 142.301H192.269V140.301ZM192.525 140.301V142.301H194.094L194.467 140.777L192.525 140.301ZM197.766 118.909V116.909H196.197L195.824 118.433L197.766 118.909ZM203.434 118.909L205.359 119.452L206.077 116.909H203.434V118.909ZM195.224 148V150H196.737L197.149 148.543L195.224 148ZM190.025 148L188.102 148.549L188.516 150H190.025V148ZM184.201 127.588L186.124 127.039L185.71 125.588H184.201V127.588ZM183.974 127.588V125.588H182.466L182.051 127.038L183.974 127.588ZM178.136 148V150H179.644L180.059 148.55L178.136 148ZM174.862 147.457L166.651 118.366L162.802 119.452L171.012 148.543L174.862 147.457ZM164.727 120.909H170.394V116.909H164.727V120.909ZM168.452 119.385L173.693 140.763L177.578 139.811L172.337 118.433L168.452 119.385ZM175.636 142.287H175.906V138.287H175.636V142.287ZM177.84 140.793L183.437 119.416L179.567 118.403L173.971 139.78L177.84 140.793ZM181.502 120.909H186.658V116.909H181.502V120.909ZM184.724 119.416L190.335 140.809L194.204 139.794L188.593 118.402L184.724 119.416ZM192.269 142.301H192.525V138.301H192.269V142.301ZM194.467 140.777L199.709 119.385L195.824 118.433L190.582 139.825L194.467 140.777ZM197.766 120.909H203.434V116.909H197.766V120.909ZM201.509 118.366L193.299 147.457L197.149 148.543L205.359 119.452L201.509 118.366ZM195.224 146H190.025V150H195.224V146ZM191.948 147.451L186.124 127.039L182.278 128.137L188.102 148.549L191.948 147.451ZM184.201 125.588H183.974V129.588H184.201V125.588ZM182.051 127.038L176.213 147.45L180.059 148.55L185.897 128.138L182.051 127.038ZM178.136 146H172.937V150H178.136V146Z" fill="#FFEEBE" mask="url(#path-14-outside-7_22_4211)"/>
<mask id="path-16-outside-8_22_4211" maskUnits="userSpaceOnUse" x="111" y="164" width="97" height="34" fill="black">
<rect fill="white" x="111" y="164" width="97" height="34"/>
<path d="M137.776 166.909V196H133.088L119.381 176.185H119.139V196H113.869V166.909H118.585L132.278 186.739H132.534V166.909H137.776ZM143.518 196V166.909H162.438V171.327H148.788V179.224H161.458V183.642H148.788V191.582H162.552V196H143.518ZM173.937 196L165.727 166.909H171.394L176.636 188.287H176.906L182.502 166.909H187.658L193.269 188.301H193.525L198.766 166.909H204.434L196.224 196H191.025L185.201 175.588H184.974L179.136 196H173.937Z"/>
</mask>
<path d="M137.776 166.909H139.776V164.909H137.776V166.909ZM137.776 196V198H139.776V196H137.776ZM133.088 196L131.443 197.138L132.04 198H133.088V196ZM119.381 176.185L121.025 175.047L120.429 174.185H119.381V176.185ZM119.139 176.185V174.185H117.139V176.185H119.139ZM119.139 196V198H121.139V196H119.139ZM113.869 196H111.869V198H113.869V196ZM113.869 166.909V164.909H111.869V166.909H113.869ZM118.585 166.909L120.231 165.773L119.635 164.909H118.585V166.909ZM132.278 186.739L130.633 187.875L131.229 188.739H132.278V186.739ZM132.534 186.739V188.739H134.534V186.739H132.534ZM132.534 166.909V164.909H130.534V166.909H132.534ZM135.776 166.909V196H139.776V166.909H135.776ZM137.776 194H133.088V198H137.776V194ZM134.733 194.862L121.025 175.047L117.736 177.322L131.443 197.138L134.733 194.862ZM119.381 174.185H119.139V178.185H119.381V174.185ZM117.139 176.185V196H121.139V176.185H117.139ZM119.139 194H113.869V198H119.139V194ZM115.869 196V166.909H111.869V196H115.869ZM113.869 168.909H118.585V164.909H113.869V168.909ZM116.939 168.046L130.633 187.875L133.924 185.602L120.231 165.773L116.939 168.046ZM132.278 188.739H132.534V184.739H132.278V188.739ZM134.534 186.739V166.909H130.534V186.739H134.534ZM132.534 168.909H137.776V164.909H132.534V168.909ZM143.518 196H141.518V198H143.518V196ZM143.518 166.909V164.909H141.518V166.909H143.518ZM162.438 166.909H164.438V164.909H162.438V166.909ZM162.438 171.327V173.327H164.438V171.327H162.438ZM148.788 171.327V169.327H146.788V171.327H148.788ZM148.788 179.224H146.788V181.224H148.788V179.224ZM161.458 179.224H163.458V177.224H161.458V179.224ZM161.458 183.642V185.642H163.458V183.642H161.458ZM148.788 183.642V181.642H146.788V183.642H148.788ZM148.788 191.582H146.788V193.582H148.788V191.582ZM162.552 191.582H164.552V189.582H162.552V191.582ZM162.552 196V198H164.552V196H162.552ZM145.518 196V166.909H141.518V196H145.518ZM143.518 168.909H162.438V164.909H143.518V168.909ZM160.438 166.909V171.327H164.438V166.909H160.438ZM162.438 169.327H148.788V173.327H162.438V169.327ZM146.788 171.327V179.224H150.788V171.327H146.788ZM148.788 181.224H161.458V177.224H148.788V181.224ZM159.458 179.224V183.642H163.458V179.224H159.458ZM161.458 181.642H148.788V185.642H161.458V181.642ZM146.788 183.642V191.582H150.788V183.642H146.788ZM148.788 193.582H162.552V189.582H148.788V193.582ZM160.552 191.582V196H164.552V191.582H160.552ZM162.552 194H143.518V198H162.552V194ZM173.937 196L172.012 196.543L172.423 198H173.937V196ZM165.727 166.909V164.909H163.084L163.802 167.452L165.727 166.909ZM171.394 166.909L173.337 166.433L172.963 164.909H171.394V166.909ZM176.636 188.287L174.693 188.763L175.067 190.287H176.636V188.287ZM176.906 188.287V190.287H178.449L178.84 188.793L176.906 188.287ZM182.502 166.909V164.909H180.958L180.567 166.403L182.502 166.909ZM187.658 166.909L189.593 166.402L189.201 164.909H187.658V166.909ZM193.269 188.301L191.335 188.809L191.726 190.301H193.269V188.301ZM193.525 188.301V190.301H195.094L195.467 188.777L193.525 188.301ZM198.766 166.909V164.909H197.197L196.824 166.433L198.766 166.909ZM204.434 166.909L206.359 167.452L207.077 164.909H204.434V166.909ZM196.224 196V198H197.737L198.149 196.543L196.224 196ZM191.025 196L189.102 196.549L189.516 198H191.025V196ZM185.201 175.588L187.124 175.039L186.71 173.588H185.201V175.588ZM184.974 175.588V173.588H183.466L183.051 175.038L184.974 175.588ZM179.136 196V198H180.644L181.059 196.55L179.136 196ZM175.862 195.457L167.651 166.366L163.802 167.452L172.012 196.543L175.862 195.457ZM165.727 168.909H171.394V164.909H165.727V168.909ZM169.452 167.385L174.693 188.763L178.578 187.811L173.337 166.433L169.452 167.385ZM176.636 190.287H176.906V186.287H176.636V190.287ZM178.84 188.793L184.437 167.416L180.567 166.403L174.971 187.78L178.84 188.793ZM182.502 168.909H187.658V164.909H182.502V168.909ZM185.724 167.416L191.335 188.809L195.204 187.794L189.593 166.402L185.724 167.416ZM193.269 190.301H193.525V186.301H193.269V190.301ZM195.467 188.777L200.709 167.385L196.824 166.433L191.582 187.825L195.467 188.777ZM198.766 168.909H204.434V164.909H198.766V168.909ZM202.509 166.366L194.299 195.457L198.149 196.543L206.359 167.452L202.509 166.366ZM196.224 194H191.025V198H196.224V194ZM192.948 195.451L187.124 175.039L183.278 176.137L189.102 196.549L192.948 195.451ZM185.201 173.588H184.974V177.588H185.201V173.588ZM183.051 175.038L177.213 195.45L181.059 196.55L186.897 176.138L183.051 175.038ZM179.136 194H173.937V198H179.136V194Z" fill="white" mask="url(#path-16-outside-8_22_4211)"/>
<rect x="7.38776" y="7.41461" width="205.225" height="207.171" rx="30" stroke="white" stroke-width="4"/>
<defs>
<linearGradient id="paint0_linear_22_4211" x1="6.99999" y1="17" x2="237.5" y2="270.5" gradientUnits="userSpaceOnUse">
<stop stop-color="#288EFF"/>
<stop offset="1" stop-color="#104681"/>
</linearGradient>
</defs>
</svg>
